G75*
G70*
%OFA0B0*%
%FSLAX24Y24*%
%IPPOS*%
%LPD*%
%AMOC8*
5,1,8,0,0,1.08239X$1,22.5*
%
%ADD10C,0.0000*%
%ADD11C,0.0060*%
%ADD12C,0.0040*%
%ADD13C,0.0070*%
%ADD14C,0.0080*%
%ADD15C,0.0100*%
%ADD16C,0.0050*%
%ADD17R,0.1500X0.0250*%
%ADD18C,0.0160*%
D10*
X000121Y000504D02*
X000121Y020189D01*
X019806Y020189D01*
X019806Y000504D01*
X000121Y000504D01*
X007046Y001634D02*
X007048Y001684D01*
X007054Y001734D01*
X007064Y001784D01*
X007077Y001832D01*
X007094Y001880D01*
X007115Y001926D01*
X007139Y001970D01*
X007167Y002012D01*
X007198Y002052D01*
X007232Y002089D01*
X007269Y002124D01*
X007308Y002155D01*
X007349Y002184D01*
X007393Y002209D01*
X007439Y002231D01*
X007486Y002249D01*
X007534Y002263D01*
X007583Y002274D01*
X007633Y002281D01*
X007683Y002284D01*
X007734Y002283D01*
X007784Y002278D01*
X007834Y002269D01*
X007882Y002257D01*
X007930Y002240D01*
X007976Y002220D01*
X008021Y002197D01*
X008064Y002170D01*
X008104Y002140D01*
X008142Y002107D01*
X008177Y002071D01*
X008210Y002032D01*
X008239Y001991D01*
X008265Y001948D01*
X008288Y001903D01*
X008307Y001856D01*
X008322Y001808D01*
X008334Y001759D01*
X008342Y001709D01*
X008346Y001659D01*
X008346Y001609D01*
X008342Y001559D01*
X008334Y001509D01*
X008322Y001460D01*
X008307Y001412D01*
X008288Y001365D01*
X008265Y001320D01*
X008239Y001277D01*
X008210Y001236D01*
X008177Y001197D01*
X008142Y001161D01*
X008104Y001128D01*
X008064Y001098D01*
X008021Y001071D01*
X007976Y001048D01*
X007930Y001028D01*
X007882Y001011D01*
X007834Y000999D01*
X007784Y000990D01*
X007734Y000985D01*
X007683Y000984D01*
X007633Y000987D01*
X007583Y000994D01*
X007534Y001005D01*
X007486Y001019D01*
X007439Y001037D01*
X007393Y001059D01*
X007349Y001084D01*
X007308Y001113D01*
X007269Y001144D01*
X007232Y001179D01*
X007198Y001216D01*
X007167Y001256D01*
X007139Y001298D01*
X007115Y001342D01*
X007094Y001388D01*
X007077Y001436D01*
X007064Y001484D01*
X007054Y001534D01*
X007048Y001584D01*
X007046Y001634D01*
X015796Y001634D02*
X015798Y001684D01*
X015804Y001734D01*
X015814Y001784D01*
X015827Y001832D01*
X015844Y001880D01*
X015865Y001926D01*
X015889Y001970D01*
X015917Y002012D01*
X015948Y002052D01*
X015982Y002089D01*
X016019Y002124D01*
X016058Y002155D01*
X016099Y002184D01*
X016143Y002209D01*
X016189Y002231D01*
X016236Y002249D01*
X016284Y002263D01*
X016333Y002274D01*
X016383Y002281D01*
X016433Y002284D01*
X016484Y002283D01*
X016534Y002278D01*
X016584Y002269D01*
X016632Y002257D01*
X016680Y002240D01*
X016726Y002220D01*
X016771Y002197D01*
X016814Y002170D01*
X016854Y002140D01*
X016892Y002107D01*
X016927Y002071D01*
X016960Y002032D01*
X016989Y001991D01*
X017015Y001948D01*
X017038Y001903D01*
X017057Y001856D01*
X017072Y001808D01*
X017084Y001759D01*
X017092Y001709D01*
X017096Y001659D01*
X017096Y001609D01*
X017092Y001559D01*
X017084Y001509D01*
X017072Y001460D01*
X017057Y001412D01*
X017038Y001365D01*
X017015Y001320D01*
X016989Y001277D01*
X016960Y001236D01*
X016927Y001197D01*
X016892Y001161D01*
X016854Y001128D01*
X016814Y001098D01*
X016771Y001071D01*
X016726Y001048D01*
X016680Y001028D01*
X016632Y001011D01*
X016584Y000999D01*
X016534Y000990D01*
X016484Y000985D01*
X016433Y000984D01*
X016383Y000987D01*
X016333Y000994D01*
X016284Y001005D01*
X016236Y001019D01*
X016189Y001037D01*
X016143Y001059D01*
X016099Y001084D01*
X016058Y001113D01*
X016019Y001144D01*
X015982Y001179D01*
X015948Y001216D01*
X015917Y001256D01*
X015889Y001298D01*
X015865Y001342D01*
X015844Y001388D01*
X015827Y001436D01*
X015814Y001484D01*
X015804Y001534D01*
X015798Y001584D01*
X015796Y001634D01*
X015796Y011014D02*
X015798Y011064D01*
X015804Y011114D01*
X015814Y011164D01*
X015827Y011212D01*
X015844Y011260D01*
X015865Y011306D01*
X015889Y011350D01*
X015917Y011392D01*
X015948Y011432D01*
X015982Y011469D01*
X016019Y011504D01*
X016058Y011535D01*
X016099Y011564D01*
X016143Y011589D01*
X016189Y011611D01*
X016236Y011629D01*
X016284Y011643D01*
X016333Y011654D01*
X016383Y011661D01*
X016433Y011664D01*
X016484Y011663D01*
X016534Y011658D01*
X016584Y011649D01*
X016632Y011637D01*
X016680Y011620D01*
X016726Y011600D01*
X016771Y011577D01*
X016814Y011550D01*
X016854Y011520D01*
X016892Y011487D01*
X016927Y011451D01*
X016960Y011412D01*
X016989Y011371D01*
X017015Y011328D01*
X017038Y011283D01*
X017057Y011236D01*
X017072Y011188D01*
X017084Y011139D01*
X017092Y011089D01*
X017096Y011039D01*
X017096Y010989D01*
X017092Y010939D01*
X017084Y010889D01*
X017072Y010840D01*
X017057Y010792D01*
X017038Y010745D01*
X017015Y010700D01*
X016989Y010657D01*
X016960Y010616D01*
X016927Y010577D01*
X016892Y010541D01*
X016854Y010508D01*
X016814Y010478D01*
X016771Y010451D01*
X016726Y010428D01*
X016680Y010408D01*
X016632Y010391D01*
X016584Y010379D01*
X016534Y010370D01*
X016484Y010365D01*
X016433Y010364D01*
X016383Y010367D01*
X016333Y010374D01*
X016284Y010385D01*
X016236Y010399D01*
X016189Y010417D01*
X016143Y010439D01*
X016099Y010464D01*
X016058Y010493D01*
X016019Y010524D01*
X015982Y010559D01*
X015948Y010596D01*
X015917Y010636D01*
X015889Y010678D01*
X015865Y010722D01*
X015844Y010768D01*
X015827Y010816D01*
X015814Y010864D01*
X015804Y010914D01*
X015798Y010964D01*
X015796Y011014D01*
X007046Y011014D02*
X007048Y011064D01*
X007054Y011114D01*
X007064Y011164D01*
X007077Y011212D01*
X007094Y011260D01*
X007115Y011306D01*
X007139Y011350D01*
X007167Y011392D01*
X007198Y011432D01*
X007232Y011469D01*
X007269Y011504D01*
X007308Y011535D01*
X007349Y011564D01*
X007393Y011589D01*
X007439Y011611D01*
X007486Y011629D01*
X007534Y011643D01*
X007583Y011654D01*
X007633Y011661D01*
X007683Y011664D01*
X007734Y011663D01*
X007784Y011658D01*
X007834Y011649D01*
X007882Y011637D01*
X007930Y011620D01*
X007976Y011600D01*
X008021Y011577D01*
X008064Y011550D01*
X008104Y011520D01*
X008142Y011487D01*
X008177Y011451D01*
X008210Y011412D01*
X008239Y011371D01*
X008265Y011328D01*
X008288Y011283D01*
X008307Y011236D01*
X008322Y011188D01*
X008334Y011139D01*
X008342Y011089D01*
X008346Y011039D01*
X008346Y010989D01*
X008342Y010939D01*
X008334Y010889D01*
X008322Y010840D01*
X008307Y010792D01*
X008288Y010745D01*
X008265Y010700D01*
X008239Y010657D01*
X008210Y010616D01*
X008177Y010577D01*
X008142Y010541D01*
X008104Y010508D01*
X008064Y010478D01*
X008021Y010451D01*
X007976Y010428D01*
X007930Y010408D01*
X007882Y010391D01*
X007834Y010379D01*
X007784Y010370D01*
X007734Y010365D01*
X007683Y010364D01*
X007633Y010367D01*
X007583Y010374D01*
X007534Y010385D01*
X007486Y010399D01*
X007439Y010417D01*
X007393Y010439D01*
X007349Y010464D01*
X007308Y010493D01*
X007269Y010524D01*
X007232Y010559D01*
X007198Y010596D01*
X007167Y010636D01*
X007139Y010678D01*
X007115Y010722D01*
X007094Y010768D01*
X007077Y010816D01*
X007064Y010864D01*
X007054Y010914D01*
X007048Y010964D01*
X007046Y011014D01*
D11*
X007759Y014882D02*
X007759Y018792D01*
X015751Y018792D01*
X015751Y014882D01*
X007759Y014882D01*
X004414Y016943D02*
X004414Y017193D01*
X003664Y017193D01*
X002914Y017193D01*
X002914Y016943D01*
X004414Y016943D01*
X000414Y016843D02*
X000418Y017002D01*
X000430Y017162D01*
X000449Y017320D01*
X000476Y017477D01*
X000511Y017633D01*
X000554Y017786D01*
X000604Y017938D01*
X000661Y018087D01*
X000726Y018233D01*
X000798Y018375D01*
X000876Y018514D01*
X000962Y018649D01*
X001054Y018779D01*
X001152Y018905D01*
X001256Y019026D01*
X001366Y019141D01*
X001481Y019251D01*
X001602Y019355D01*
X001728Y019453D01*
X001858Y019545D01*
X001993Y019631D01*
X002132Y019709D01*
X002274Y019781D01*
X002420Y019846D01*
X002569Y019903D01*
X002721Y019953D01*
X002874Y019996D01*
X003030Y020031D01*
X003187Y020058D01*
X003345Y020077D01*
X003505Y020089D01*
X003664Y020093D01*
X003823Y020089D01*
X003983Y020077D01*
X004141Y020058D01*
X004298Y020031D01*
X004454Y019996D01*
X004607Y019953D01*
X004759Y019903D01*
X004908Y019846D01*
X005054Y019781D01*
X005196Y019709D01*
X005335Y019631D01*
X005470Y019545D01*
X005600Y019453D01*
X005726Y019355D01*
X005847Y019251D01*
X005962Y019141D01*
X006072Y019026D01*
X006176Y018905D01*
X006274Y018779D01*
X006366Y018649D01*
X006452Y018514D01*
X006530Y018375D01*
X006602Y018233D01*
X006667Y018087D01*
X006724Y017938D01*
X006774Y017786D01*
X006817Y017633D01*
X006852Y017477D01*
X006879Y017320D01*
X006898Y017162D01*
X006910Y017002D01*
X006914Y016843D01*
X006910Y016684D01*
X006898Y016524D01*
X006879Y016366D01*
X006852Y016209D01*
X006817Y016053D01*
X006774Y015900D01*
X006724Y015748D01*
X006667Y015599D01*
X006602Y015453D01*
X006530Y015311D01*
X006452Y015172D01*
X006366Y015037D01*
X006274Y014907D01*
X006176Y014781D01*
X006072Y014660D01*
X005962Y014545D01*
X005847Y014435D01*
X005726Y014331D01*
X005600Y014233D01*
X005470Y014141D01*
X005335Y014055D01*
X005196Y013977D01*
X005054Y013905D01*
X004908Y013840D01*
X004759Y013783D01*
X004607Y013733D01*
X004454Y013690D01*
X004298Y013655D01*
X004141Y013628D01*
X003983Y013609D01*
X003823Y013597D01*
X003664Y013593D01*
X003505Y013597D01*
X003345Y013609D01*
X003187Y013628D01*
X003030Y013655D01*
X002874Y013690D01*
X002721Y013733D01*
X002569Y013783D01*
X002420Y013840D01*
X002274Y013905D01*
X002132Y013977D01*
X001993Y014055D01*
X001858Y014141D01*
X001728Y014233D01*
X001602Y014331D01*
X001481Y014435D01*
X001366Y014545D01*
X001256Y014660D01*
X001152Y014781D01*
X001054Y014907D01*
X000962Y015037D01*
X000876Y015172D01*
X000798Y015311D01*
X000726Y015453D01*
X000661Y015599D01*
X000604Y015748D01*
X000554Y015900D01*
X000511Y016053D01*
X000476Y016209D01*
X000449Y016366D01*
X000430Y016524D01*
X000418Y016684D01*
X000414Y016843D01*
X003364Y019493D02*
X003964Y019493D01*
X003664Y019793D02*
X003664Y019193D01*
X003664Y017643D02*
X003664Y017193D01*
X003664Y016593D02*
X003664Y016043D01*
X016450Y013846D02*
X016550Y013846D01*
X016600Y013796D01*
X017500Y013796D01*
X017550Y013846D01*
X017650Y013846D01*
X017667Y013844D01*
X017684Y013840D01*
X017700Y013833D01*
X017714Y013823D01*
X017727Y013810D01*
X017737Y013796D01*
X017744Y013780D01*
X017748Y013763D01*
X017750Y013746D01*
X017750Y013246D02*
X017748Y013229D01*
X017744Y013212D01*
X017737Y013196D01*
X017727Y013182D01*
X017714Y013169D01*
X017700Y013159D01*
X017684Y013152D01*
X017667Y013148D01*
X017650Y013146D01*
X017550Y013146D01*
X017500Y013196D01*
X016600Y013196D01*
X016550Y013146D01*
X016450Y013146D01*
X016433Y013148D01*
X016416Y013152D01*
X016400Y013159D01*
X016386Y013169D01*
X016373Y013182D01*
X016363Y013196D01*
X016356Y013212D01*
X016352Y013229D01*
X016350Y013246D01*
X016350Y013746D02*
X016352Y013763D01*
X016356Y013780D01*
X016363Y013796D01*
X016373Y013810D01*
X016386Y013823D01*
X016400Y013833D01*
X016416Y013840D01*
X016433Y013844D01*
X016450Y013846D01*
X017034Y017039D02*
X017036Y017102D01*
X017042Y017164D01*
X017052Y017226D01*
X017065Y017288D01*
X017083Y017348D01*
X017104Y017407D01*
X017129Y017465D01*
X017158Y017521D01*
X017190Y017575D01*
X017225Y017627D01*
X017263Y017676D01*
X017305Y017724D01*
X017349Y017768D01*
X017397Y017810D01*
X017446Y017848D01*
X017498Y017883D01*
X017552Y017915D01*
X017608Y017944D01*
X017666Y017969D01*
X017725Y017990D01*
X017785Y018008D01*
X017847Y018021D01*
X017909Y018031D01*
X017971Y018037D01*
X018034Y018039D01*
X018097Y018037D01*
X018159Y018031D01*
X018221Y018021D01*
X018283Y018008D01*
X018343Y017990D01*
X018402Y017969D01*
X018460Y017944D01*
X018516Y017915D01*
X018570Y017883D01*
X018622Y017848D01*
X018671Y017810D01*
X018719Y017768D01*
X018763Y017724D01*
X018805Y017676D01*
X018843Y017627D01*
X018878Y017575D01*
X018910Y017521D01*
X018939Y017465D01*
X018964Y017407D01*
X018985Y017348D01*
X019003Y017288D01*
X019016Y017226D01*
X019026Y017164D01*
X019032Y017102D01*
X019034Y017039D01*
X019032Y016976D01*
X019026Y016914D01*
X019016Y016852D01*
X019003Y016790D01*
X018985Y016730D01*
X018964Y016671D01*
X018939Y016613D01*
X018910Y016557D01*
X018878Y016503D01*
X018843Y016451D01*
X018805Y016402D01*
X018763Y016354D01*
X018719Y016310D01*
X018671Y016268D01*
X018622Y016230D01*
X018570Y016195D01*
X018516Y016163D01*
X018460Y016134D01*
X018402Y016109D01*
X018343Y016088D01*
X018283Y016070D01*
X018221Y016057D01*
X018159Y016047D01*
X018097Y016041D01*
X018034Y016039D01*
X017971Y016041D01*
X017909Y016047D01*
X017847Y016057D01*
X017785Y016070D01*
X017725Y016088D01*
X017666Y016109D01*
X017608Y016134D01*
X017552Y016163D01*
X017498Y016195D01*
X017446Y016230D01*
X017397Y016268D01*
X017349Y016310D01*
X017305Y016354D01*
X017263Y016402D01*
X017225Y016451D01*
X017190Y016503D01*
X017158Y016557D01*
X017129Y016613D01*
X017104Y016671D01*
X017083Y016730D01*
X017065Y016790D01*
X017052Y016852D01*
X017042Y016914D01*
X017036Y016976D01*
X017034Y017039D01*
D12*
X015235Y017718D02*
X015235Y017843D01*
X015235Y017718D02*
X014485Y017718D01*
X014235Y017343D02*
X013985Y017843D01*
X013985Y017718D02*
X013235Y017718D01*
X013235Y017843D01*
X014235Y017343D02*
X014235Y017218D01*
X011235Y017218D01*
X011235Y017843D01*
X011235Y016468D02*
X014235Y016468D01*
X014235Y016343D01*
X013985Y015843D01*
X013985Y015968D02*
X013235Y015968D01*
X013235Y015843D01*
X014485Y015968D02*
X015235Y015968D01*
X015235Y015843D01*
X017142Y013016D02*
X017317Y013016D01*
X017375Y012958D01*
X017375Y012841D01*
X017317Y012783D01*
X017142Y012783D01*
X017259Y012783D02*
X017375Y012666D01*
X017501Y012666D02*
X017734Y012666D01*
X017618Y012666D02*
X017618Y013016D01*
X017501Y012900D01*
X017142Y013016D02*
X017142Y012666D01*
X011235Y015843D02*
X011235Y016468D01*
X008485Y016718D02*
X008485Y016968D01*
X008235Y016968D01*
X007985Y016968D01*
X007985Y016718D01*
X008235Y016718D01*
X008235Y015843D01*
X008235Y016718D02*
X008485Y016718D01*
X008235Y016968D02*
X008235Y017843D01*
D13*
X009205Y017076D02*
X009205Y016445D01*
X009205Y016655D02*
X009625Y017076D01*
X009850Y016865D02*
X010060Y017076D01*
X010060Y016445D01*
X009850Y016445D02*
X010270Y016445D01*
X009625Y016445D02*
X009310Y016760D01*
D14*
X017284Y018039D02*
X018784Y018039D01*
D15*
X018838Y017996D01*
X018890Y017950D01*
X018939Y017901D01*
X018986Y017849D01*
X019029Y017795D01*
X019070Y017739D01*
X019107Y017680D01*
X019141Y017620D01*
X019171Y017557D01*
X019198Y017494D01*
X019222Y017428D01*
X019242Y017362D01*
X019258Y017294D01*
X019270Y017226D01*
X019278Y017157D01*
X019283Y017088D01*
X019284Y017018D01*
X019281Y016949D01*
X019274Y016880D01*
X019263Y016812D01*
X019249Y016744D01*
X019230Y016677D01*
X019208Y016611D01*
X019183Y016546D01*
X019154Y016483D01*
X019121Y016422D01*
X019085Y016363D01*
X019046Y016306D01*
X019004Y016250D01*
X018959Y016198D01*
X018911Y016148D01*
X018860Y016101D01*
X018806Y016056D01*
X018751Y016015D01*
X018693Y015977D01*
X018633Y015942D01*
X018571Y015910D01*
X018508Y015882D01*
X018443Y015858D01*
X018377Y015837D01*
X018309Y015820D01*
X018241Y015806D01*
X018172Y015797D01*
X018103Y015791D01*
X018034Y015789D01*
X017965Y015791D01*
X017896Y015797D01*
X017827Y015806D01*
X017759Y015820D01*
X017691Y015837D01*
X017625Y015858D01*
X017560Y015882D01*
X017497Y015910D01*
X017435Y015942D01*
X017375Y015977D01*
X017317Y016015D01*
X017262Y016056D01*
X017208Y016101D01*
X017157Y016148D01*
X017109Y016198D01*
X017064Y016250D01*
X017022Y016306D01*
X016983Y016363D01*
X016947Y016422D01*
X016914Y016483D01*
X016885Y016546D01*
X016860Y016611D01*
X016838Y016677D01*
X016819Y016744D01*
X016805Y016812D01*
X016794Y016880D01*
X016787Y016949D01*
X016784Y017018D01*
X016785Y017088D01*
X016790Y017157D01*
X016798Y017226D01*
X016810Y017294D01*
X016826Y017362D01*
X016846Y017428D01*
X016870Y017494D01*
X016897Y017557D01*
X016927Y017620D01*
X016961Y017680D01*
X016998Y017739D01*
X017039Y017795D01*
X017082Y017849D01*
X017129Y017901D01*
X017178Y017950D01*
X017230Y017996D01*
X017284Y018039D01*
D16*
X017098Y015820D02*
X016873Y015820D01*
X016873Y015370D01*
X017098Y015370D01*
X017173Y015445D01*
X017173Y015745D01*
X017098Y015820D01*
X017333Y015670D02*
X017483Y015820D01*
X017483Y015370D01*
X017333Y015370D02*
X017633Y015370D01*
X016713Y015370D02*
X016412Y015370D01*
X016412Y015820D01*
X016713Y015820D01*
X016563Y015595D02*
X016412Y015595D01*
X016252Y015370D02*
X015952Y015370D01*
X015952Y015820D01*
X022896Y012144D02*
X001696Y012144D01*
X001696Y000504D01*
X022896Y000504D01*
X022896Y012144D01*
X004836Y015466D02*
X004836Y015616D01*
X004761Y015691D01*
X004836Y015851D02*
X004836Y016151D01*
X004836Y016001D02*
X004386Y016001D01*
X004536Y015851D01*
X004461Y015691D02*
X004386Y015616D01*
X004386Y015466D01*
X004461Y015390D01*
X004761Y015390D01*
X004836Y015466D01*
D17*
X003664Y016618D03*
D18*
X004390Y009819D02*
X004390Y008591D01*
X005003Y009205D02*
X003776Y009205D01*
M02*
