%
M48
M72
T01C0.0320
T02C0.0394
T03C0.0400
T04C0.0810
T05C0.1300
%
T01
X16050Y13496
X18050Y13496
X18034Y16539
X18034Y17539
T02
X15235Y18343
X13235Y18343
X11235Y18343
X8235Y18343
X8235Y15343
X11235Y15343
X13235Y15343
X15235Y15343
T03
X3664Y15343
X3664Y18343
T04
X1696Y3824
X1696Y8824
T05
X7696Y11014
X16446Y11014
X16446Y1634
X7696Y1634
M30
