G75*
G70*
%OFA0B0*%
%FSLAX24Y24*%
%IPPOS*%
%LPD*%
%AMOC8*
5,1,8,0,0,1.08239X$1,22.5*
%
%ADD10C,0.0000*%
%ADD11C,0.0709*%
%ADD12OC8,0.0520*%
%ADD13OC8,0.1240*%
%ADD14C,0.1240*%
%ADD15C,0.1210*%
%ADD16C,0.0039*%
%ADD17C,0.0295*%
D10*
X000121Y000504D02*
X000121Y020189D01*
X019806Y020189D01*
X019806Y000504D01*
X000121Y000504D01*
X007046Y001634D02*
X007048Y001684D01*
X007054Y001734D01*
X007064Y001784D01*
X007077Y001832D01*
X007094Y001880D01*
X007115Y001926D01*
X007139Y001970D01*
X007167Y002012D01*
X007198Y002052D01*
X007232Y002089D01*
X007269Y002124D01*
X007308Y002155D01*
X007349Y002184D01*
X007393Y002209D01*
X007439Y002231D01*
X007486Y002249D01*
X007534Y002263D01*
X007583Y002274D01*
X007633Y002281D01*
X007683Y002284D01*
X007734Y002283D01*
X007784Y002278D01*
X007834Y002269D01*
X007882Y002257D01*
X007930Y002240D01*
X007976Y002220D01*
X008021Y002197D01*
X008064Y002170D01*
X008104Y002140D01*
X008142Y002107D01*
X008177Y002071D01*
X008210Y002032D01*
X008239Y001991D01*
X008265Y001948D01*
X008288Y001903D01*
X008307Y001856D01*
X008322Y001808D01*
X008334Y001759D01*
X008342Y001709D01*
X008346Y001659D01*
X008346Y001609D01*
X008342Y001559D01*
X008334Y001509D01*
X008322Y001460D01*
X008307Y001412D01*
X008288Y001365D01*
X008265Y001320D01*
X008239Y001277D01*
X008210Y001236D01*
X008177Y001197D01*
X008142Y001161D01*
X008104Y001128D01*
X008064Y001098D01*
X008021Y001071D01*
X007976Y001048D01*
X007930Y001028D01*
X007882Y001011D01*
X007834Y000999D01*
X007784Y000990D01*
X007734Y000985D01*
X007683Y000984D01*
X007633Y000987D01*
X007583Y000994D01*
X007534Y001005D01*
X007486Y001019D01*
X007439Y001037D01*
X007393Y001059D01*
X007349Y001084D01*
X007308Y001113D01*
X007269Y001144D01*
X007232Y001179D01*
X007198Y001216D01*
X007167Y001256D01*
X007139Y001298D01*
X007115Y001342D01*
X007094Y001388D01*
X007077Y001436D01*
X007064Y001484D01*
X007054Y001534D01*
X007048Y001584D01*
X007046Y001634D01*
X015796Y001634D02*
X015798Y001684D01*
X015804Y001734D01*
X015814Y001784D01*
X015827Y001832D01*
X015844Y001880D01*
X015865Y001926D01*
X015889Y001970D01*
X015917Y002012D01*
X015948Y002052D01*
X015982Y002089D01*
X016019Y002124D01*
X016058Y002155D01*
X016099Y002184D01*
X016143Y002209D01*
X016189Y002231D01*
X016236Y002249D01*
X016284Y002263D01*
X016333Y002274D01*
X016383Y002281D01*
X016433Y002284D01*
X016484Y002283D01*
X016534Y002278D01*
X016584Y002269D01*
X016632Y002257D01*
X016680Y002240D01*
X016726Y002220D01*
X016771Y002197D01*
X016814Y002170D01*
X016854Y002140D01*
X016892Y002107D01*
X016927Y002071D01*
X016960Y002032D01*
X016989Y001991D01*
X017015Y001948D01*
X017038Y001903D01*
X017057Y001856D01*
X017072Y001808D01*
X017084Y001759D01*
X017092Y001709D01*
X017096Y001659D01*
X017096Y001609D01*
X017092Y001559D01*
X017084Y001509D01*
X017072Y001460D01*
X017057Y001412D01*
X017038Y001365D01*
X017015Y001320D01*
X016989Y001277D01*
X016960Y001236D01*
X016927Y001197D01*
X016892Y001161D01*
X016854Y001128D01*
X016814Y001098D01*
X016771Y001071D01*
X016726Y001048D01*
X016680Y001028D01*
X016632Y001011D01*
X016584Y000999D01*
X016534Y000990D01*
X016484Y000985D01*
X016433Y000984D01*
X016383Y000987D01*
X016333Y000994D01*
X016284Y001005D01*
X016236Y001019D01*
X016189Y001037D01*
X016143Y001059D01*
X016099Y001084D01*
X016058Y001113D01*
X016019Y001144D01*
X015982Y001179D01*
X015948Y001216D01*
X015917Y001256D01*
X015889Y001298D01*
X015865Y001342D01*
X015844Y001388D01*
X015827Y001436D01*
X015814Y001484D01*
X015804Y001534D01*
X015798Y001584D01*
X015796Y001634D01*
X015796Y011014D02*
X015798Y011064D01*
X015804Y011114D01*
X015814Y011164D01*
X015827Y011212D01*
X015844Y011260D01*
X015865Y011306D01*
X015889Y011350D01*
X015917Y011392D01*
X015948Y011432D01*
X015982Y011469D01*
X016019Y011504D01*
X016058Y011535D01*
X016099Y011564D01*
X016143Y011589D01*
X016189Y011611D01*
X016236Y011629D01*
X016284Y011643D01*
X016333Y011654D01*
X016383Y011661D01*
X016433Y011664D01*
X016484Y011663D01*
X016534Y011658D01*
X016584Y011649D01*
X016632Y011637D01*
X016680Y011620D01*
X016726Y011600D01*
X016771Y011577D01*
X016814Y011550D01*
X016854Y011520D01*
X016892Y011487D01*
X016927Y011451D01*
X016960Y011412D01*
X016989Y011371D01*
X017015Y011328D01*
X017038Y011283D01*
X017057Y011236D01*
X017072Y011188D01*
X017084Y011139D01*
X017092Y011089D01*
X017096Y011039D01*
X017096Y010989D01*
X017092Y010939D01*
X017084Y010889D01*
X017072Y010840D01*
X017057Y010792D01*
X017038Y010745D01*
X017015Y010700D01*
X016989Y010657D01*
X016960Y010616D01*
X016927Y010577D01*
X016892Y010541D01*
X016854Y010508D01*
X016814Y010478D01*
X016771Y010451D01*
X016726Y010428D01*
X016680Y010408D01*
X016632Y010391D01*
X016584Y010379D01*
X016534Y010370D01*
X016484Y010365D01*
X016433Y010364D01*
X016383Y010367D01*
X016333Y010374D01*
X016284Y010385D01*
X016236Y010399D01*
X016189Y010417D01*
X016143Y010439D01*
X016099Y010464D01*
X016058Y010493D01*
X016019Y010524D01*
X015982Y010559D01*
X015948Y010596D01*
X015917Y010636D01*
X015889Y010678D01*
X015865Y010722D01*
X015844Y010768D01*
X015827Y010816D01*
X015814Y010864D01*
X015804Y010914D01*
X015798Y010964D01*
X015796Y011014D01*
X007046Y011014D02*
X007048Y011064D01*
X007054Y011114D01*
X007064Y011164D01*
X007077Y011212D01*
X007094Y011260D01*
X007115Y011306D01*
X007139Y011350D01*
X007167Y011392D01*
X007198Y011432D01*
X007232Y011469D01*
X007269Y011504D01*
X007308Y011535D01*
X007349Y011564D01*
X007393Y011589D01*
X007439Y011611D01*
X007486Y011629D01*
X007534Y011643D01*
X007583Y011654D01*
X007633Y011661D01*
X007683Y011664D01*
X007734Y011663D01*
X007784Y011658D01*
X007834Y011649D01*
X007882Y011637D01*
X007930Y011620D01*
X007976Y011600D01*
X008021Y011577D01*
X008064Y011550D01*
X008104Y011520D01*
X008142Y011487D01*
X008177Y011451D01*
X008210Y011412D01*
X008239Y011371D01*
X008265Y011328D01*
X008288Y011283D01*
X008307Y011236D01*
X008322Y011188D01*
X008334Y011139D01*
X008342Y011089D01*
X008346Y011039D01*
X008346Y010989D01*
X008342Y010939D01*
X008334Y010889D01*
X008322Y010840D01*
X008307Y010792D01*
X008288Y010745D01*
X008265Y010700D01*
X008239Y010657D01*
X008210Y010616D01*
X008177Y010577D01*
X008142Y010541D01*
X008104Y010508D01*
X008064Y010478D01*
X008021Y010451D01*
X007976Y010428D01*
X007930Y010408D01*
X007882Y010391D01*
X007834Y010379D01*
X007784Y010370D01*
X007734Y010365D01*
X007683Y010364D01*
X007633Y010367D01*
X007583Y010374D01*
X007534Y010385D01*
X007486Y010399D01*
X007439Y010417D01*
X007393Y010439D01*
X007349Y010464D01*
X007308Y010493D01*
X007269Y010524D01*
X007232Y010559D01*
X007198Y010596D01*
X007167Y010636D01*
X007139Y010678D01*
X007115Y010722D01*
X007094Y010768D01*
X007077Y010816D01*
X007064Y010864D01*
X007054Y010914D01*
X007048Y010964D01*
X007046Y011014D01*
D11*
X008235Y015343D03*
X011235Y015343D03*
X013235Y015343D03*
X015235Y015343D03*
X015235Y018343D03*
X013235Y018343D03*
X011235Y018343D03*
X008235Y018343D03*
D12*
X016050Y013496D03*
X018050Y013496D03*
X018034Y016539D03*
X018034Y017539D03*
D13*
X003664Y015343D03*
D14*
X003664Y018343D03*
D15*
X002301Y008824D02*
X001091Y008824D01*
X001091Y003824D02*
X002301Y003824D01*
D16*
X002860Y004371D02*
X019629Y004371D01*
X019629Y004333D02*
X002898Y004333D01*
X002936Y004295D02*
X019629Y004295D01*
X019629Y004257D02*
X002968Y004257D01*
X002964Y004267D02*
X002744Y004487D01*
X002456Y004606D01*
X000935Y004606D01*
X000648Y004487D01*
X000428Y004267D01*
X000309Y003980D01*
X000309Y003668D01*
X000428Y003381D01*
X000648Y003161D01*
X000935Y003042D01*
X002456Y003042D01*
X002744Y003161D01*
X002964Y003381D01*
X003083Y003668D01*
X003083Y003980D01*
X002964Y004267D01*
X002984Y004219D02*
X019629Y004219D01*
X019629Y004182D02*
X002999Y004182D01*
X003015Y004144D02*
X019629Y004144D01*
X019629Y004106D02*
X003031Y004106D01*
X003046Y004068D02*
X019629Y004068D01*
X019629Y004030D02*
X003062Y004030D01*
X003078Y003992D02*
X019629Y003992D01*
X019629Y003954D02*
X003083Y003954D01*
X003083Y003916D02*
X019629Y003916D01*
X019629Y003878D02*
X003083Y003878D01*
X003083Y003840D02*
X019629Y003840D01*
X019629Y003802D02*
X003083Y003802D01*
X003083Y003764D02*
X019629Y003764D01*
X019629Y003727D02*
X003083Y003727D01*
X003083Y003689D02*
X019629Y003689D01*
X019629Y003651D02*
X003076Y003651D01*
X003060Y003613D02*
X019629Y003613D01*
X019629Y003575D02*
X003044Y003575D01*
X003028Y003537D02*
X019629Y003537D01*
X019629Y003499D02*
X003013Y003499D01*
X002997Y003461D02*
X019629Y003461D01*
X019629Y003423D02*
X002981Y003423D01*
X002966Y003385D02*
X019629Y003385D01*
X019629Y003347D02*
X002930Y003347D01*
X002892Y003310D02*
X019629Y003310D01*
X019629Y003272D02*
X002855Y003272D01*
X002817Y003234D02*
X019629Y003234D01*
X019629Y003196D02*
X002779Y003196D01*
X002737Y003158D02*
X019629Y003158D01*
X019629Y003120D02*
X002645Y003120D01*
X002554Y003082D02*
X019629Y003082D01*
X019629Y003044D02*
X002462Y003044D01*
X000929Y003044D02*
X000298Y003044D01*
X000298Y003006D02*
X019629Y003006D01*
X019629Y002968D02*
X000298Y002968D01*
X000298Y002930D02*
X019629Y002930D01*
X019629Y002892D02*
X000298Y002892D01*
X000298Y002855D02*
X019629Y002855D01*
X019629Y002817D02*
X000298Y002817D01*
X000298Y002779D02*
X019629Y002779D01*
X019629Y002741D02*
X000298Y002741D01*
X000298Y002703D02*
X019629Y002703D01*
X019629Y002665D02*
X000298Y002665D01*
X000298Y002627D02*
X019629Y002627D01*
X019629Y002589D02*
X000298Y002589D01*
X000298Y002551D02*
X019629Y002551D01*
X019629Y002513D02*
X000298Y002513D01*
X000298Y002475D02*
X019629Y002475D01*
X019629Y002438D02*
X016667Y002438D01*
X016610Y002461D02*
X016281Y002461D01*
X015977Y002335D01*
X015744Y002102D01*
X015619Y001798D01*
X015619Y001469D01*
X015744Y001165D01*
X015977Y000933D01*
X016281Y000807D01*
X016610Y000807D01*
X016914Y000933D01*
X017147Y001165D01*
X017273Y001469D01*
X017273Y001798D01*
X017147Y002102D01*
X016914Y002335D01*
X016610Y002461D01*
X016759Y002400D02*
X019629Y002400D01*
X019629Y002362D02*
X016850Y002362D01*
X016926Y002324D02*
X019629Y002324D01*
X019629Y002286D02*
X016964Y002286D01*
X017001Y002248D02*
X019629Y002248D01*
X019629Y002210D02*
X017039Y002210D01*
X017077Y002172D02*
X019629Y002172D01*
X019629Y002134D02*
X017115Y002134D01*
X017150Y002096D02*
X019629Y002096D01*
X019629Y002058D02*
X017165Y002058D01*
X017181Y002020D02*
X019629Y002020D01*
X019629Y001983D02*
X017197Y001983D01*
X017212Y001945D02*
X019629Y001945D01*
X019629Y001907D02*
X017228Y001907D01*
X017244Y001869D02*
X019629Y001869D01*
X019629Y001831D02*
X017259Y001831D01*
X017273Y001793D02*
X019629Y001793D01*
X019629Y001755D02*
X017273Y001755D01*
X017273Y001717D02*
X019629Y001717D01*
X019629Y001679D02*
X017273Y001679D01*
X017273Y001641D02*
X019629Y001641D01*
X019629Y001603D02*
X017273Y001603D01*
X017273Y001566D02*
X019629Y001566D01*
X019629Y001528D02*
X017273Y001528D01*
X017273Y001490D02*
X019629Y001490D01*
X019629Y001452D02*
X017266Y001452D01*
X017250Y001414D02*
X019629Y001414D01*
X019629Y001376D02*
X017234Y001376D01*
X017218Y001338D02*
X019629Y001338D01*
X019629Y001300D02*
X017203Y001300D01*
X017187Y001262D02*
X019629Y001262D01*
X019629Y001224D02*
X017171Y001224D01*
X017156Y001186D02*
X019629Y001186D01*
X019629Y001148D02*
X017130Y001148D01*
X017092Y001111D02*
X019629Y001111D01*
X019629Y001073D02*
X017054Y001073D01*
X017016Y001035D02*
X019629Y001035D01*
X019629Y000997D02*
X016978Y000997D01*
X016941Y000959D02*
X019629Y000959D01*
X019629Y000921D02*
X016886Y000921D01*
X016794Y000883D02*
X019629Y000883D01*
X019629Y000845D02*
X016703Y000845D01*
X016611Y000807D02*
X019629Y000807D01*
X019629Y000769D02*
X000298Y000769D01*
X000298Y000731D02*
X019629Y000731D01*
X019629Y000694D02*
X000298Y000694D01*
X000298Y000681D02*
X000298Y020012D01*
X019629Y020012D01*
X019629Y000681D01*
X000298Y000681D01*
X000298Y000807D02*
X007530Y000807D01*
X007531Y000807D02*
X007860Y000807D01*
X008164Y000933D01*
X008397Y001165D01*
X008523Y001469D01*
X008523Y001798D01*
X008397Y002102D01*
X008164Y002335D01*
X007860Y002461D01*
X007531Y002461D01*
X007227Y002335D01*
X006994Y002102D01*
X006869Y001798D01*
X006869Y001469D01*
X006994Y001165D01*
X007227Y000933D01*
X007531Y000807D01*
X007438Y000845D02*
X000298Y000845D01*
X000298Y000883D02*
X007347Y000883D01*
X007255Y000921D02*
X000298Y000921D01*
X000298Y000959D02*
X007201Y000959D01*
X007163Y000997D02*
X000298Y000997D01*
X000298Y001035D02*
X007125Y001035D01*
X007087Y001073D02*
X000298Y001073D01*
X000298Y001111D02*
X007049Y001111D01*
X007011Y001148D02*
X000298Y001148D01*
X000298Y001186D02*
X006986Y001186D01*
X006970Y001224D02*
X000298Y001224D01*
X000298Y001262D02*
X006954Y001262D01*
X006939Y001300D02*
X000298Y001300D01*
X000298Y001338D02*
X006923Y001338D01*
X006907Y001376D02*
X000298Y001376D01*
X000298Y001414D02*
X006892Y001414D01*
X006876Y001452D02*
X000298Y001452D01*
X000298Y001490D02*
X006869Y001490D01*
X006869Y001528D02*
X000298Y001528D01*
X000298Y001566D02*
X006869Y001566D01*
X006869Y001603D02*
X000298Y001603D01*
X000298Y001641D02*
X006869Y001641D01*
X006869Y001679D02*
X000298Y001679D01*
X000298Y001717D02*
X006869Y001717D01*
X006869Y001755D02*
X000298Y001755D01*
X000298Y001793D02*
X006869Y001793D01*
X006882Y001831D02*
X000298Y001831D01*
X000298Y001869D02*
X006898Y001869D01*
X006913Y001907D02*
X000298Y001907D01*
X000298Y001945D02*
X006929Y001945D01*
X006945Y001983D02*
X000298Y001983D01*
X000298Y002020D02*
X006961Y002020D01*
X006976Y002058D02*
X000298Y002058D01*
X000298Y002096D02*
X006992Y002096D01*
X007026Y002134D02*
X000298Y002134D01*
X000298Y002172D02*
X007064Y002172D01*
X007102Y002210D02*
X000298Y002210D01*
X000298Y002248D02*
X007140Y002248D01*
X007178Y002286D02*
X000298Y002286D01*
X000298Y002324D02*
X007216Y002324D01*
X007291Y002362D02*
X000298Y002362D01*
X000298Y002400D02*
X007383Y002400D01*
X007474Y002438D02*
X000298Y002438D01*
X000298Y003082D02*
X000838Y003082D01*
X000746Y003120D02*
X000298Y003120D01*
X000298Y003158D02*
X000655Y003158D01*
X000613Y003196D02*
X000298Y003196D01*
X000298Y003234D02*
X000575Y003234D01*
X000537Y003272D02*
X000298Y003272D01*
X000298Y003310D02*
X000499Y003310D01*
X000461Y003347D02*
X000298Y003347D01*
X000298Y003385D02*
X000426Y003385D01*
X000410Y003423D02*
X000298Y003423D01*
X000298Y003461D02*
X000394Y003461D01*
X000379Y003499D02*
X000298Y003499D01*
X000298Y003537D02*
X000363Y003537D01*
X000347Y003575D02*
X000298Y003575D01*
X000298Y003613D02*
X000332Y003613D01*
X000316Y003651D02*
X000298Y003651D01*
X000298Y003689D02*
X000309Y003689D01*
X000309Y003727D02*
X000298Y003727D01*
X000298Y003764D02*
X000309Y003764D01*
X000309Y003802D02*
X000298Y003802D01*
X000298Y003840D02*
X000309Y003840D01*
X000309Y003878D02*
X000298Y003878D01*
X000298Y003916D02*
X000309Y003916D01*
X000309Y003954D02*
X000298Y003954D01*
X000298Y003992D02*
X000314Y003992D01*
X000329Y004030D02*
X000298Y004030D01*
X000298Y004068D02*
X000345Y004068D01*
X000361Y004106D02*
X000298Y004106D01*
X000298Y004144D02*
X000377Y004144D01*
X000392Y004182D02*
X000298Y004182D01*
X000298Y004219D02*
X000408Y004219D01*
X000424Y004257D02*
X000298Y004257D01*
X000298Y004295D02*
X000456Y004295D01*
X000494Y004333D02*
X000298Y004333D01*
X000298Y004371D02*
X000532Y004371D01*
X000570Y004409D02*
X000298Y004409D01*
X000298Y004447D02*
X000608Y004447D01*
X000646Y004485D02*
X000298Y004485D01*
X000298Y004523D02*
X000734Y004523D01*
X000826Y004561D02*
X000298Y004561D01*
X000298Y004599D02*
X000917Y004599D01*
X000298Y004636D02*
X019629Y004636D01*
X019629Y004599D02*
X002474Y004599D01*
X002566Y004561D02*
X019629Y004561D01*
X019629Y004523D02*
X002657Y004523D01*
X002746Y004485D02*
X019629Y004485D01*
X019629Y004447D02*
X002784Y004447D01*
X002822Y004409D02*
X019629Y004409D01*
X019629Y004674D02*
X000298Y004674D01*
X000298Y004712D02*
X019629Y004712D01*
X019629Y004750D02*
X000298Y004750D01*
X000298Y004788D02*
X019629Y004788D01*
X019629Y004826D02*
X000298Y004826D01*
X000298Y004864D02*
X019629Y004864D01*
X019629Y004902D02*
X000298Y004902D01*
X000298Y004940D02*
X019629Y004940D01*
X019629Y004978D02*
X000298Y004978D01*
X000298Y005016D02*
X019629Y005016D01*
X019629Y005054D02*
X000298Y005054D01*
X000298Y005091D02*
X019629Y005091D01*
X019629Y005129D02*
X000298Y005129D01*
X000298Y005167D02*
X019629Y005167D01*
X019629Y005205D02*
X000298Y005205D01*
X000298Y005243D02*
X019629Y005243D01*
X019629Y005281D02*
X000298Y005281D01*
X000298Y005319D02*
X019629Y005319D01*
X019629Y005357D02*
X000298Y005357D01*
X000298Y005395D02*
X019629Y005395D01*
X019629Y005433D02*
X000298Y005433D01*
X000298Y005471D02*
X019629Y005471D01*
X019629Y005509D02*
X000298Y005509D01*
X000298Y005546D02*
X019629Y005546D01*
X019629Y005584D02*
X000298Y005584D01*
X000298Y005622D02*
X019629Y005622D01*
X019629Y005660D02*
X000298Y005660D01*
X000298Y005698D02*
X019629Y005698D01*
X019629Y005736D02*
X000298Y005736D01*
X000298Y005774D02*
X019629Y005774D01*
X019629Y005812D02*
X000298Y005812D01*
X000298Y005850D02*
X019629Y005850D01*
X019629Y005888D02*
X000298Y005888D01*
X000298Y005926D02*
X019629Y005926D01*
X019629Y005963D02*
X000298Y005963D01*
X000298Y006001D02*
X019629Y006001D01*
X019629Y006039D02*
X000298Y006039D01*
X000298Y006077D02*
X019629Y006077D01*
X019629Y006115D02*
X000298Y006115D01*
X000298Y006153D02*
X019629Y006153D01*
X019629Y006191D02*
X000298Y006191D01*
X000298Y006229D02*
X019629Y006229D01*
X019629Y006267D02*
X000298Y006267D01*
X000298Y006305D02*
X019629Y006305D01*
X019629Y006343D02*
X000298Y006343D01*
X000298Y006381D02*
X019629Y006381D01*
X019629Y006418D02*
X000298Y006418D01*
X000298Y006456D02*
X019629Y006456D01*
X019629Y006494D02*
X000298Y006494D01*
X000298Y006532D02*
X019629Y006532D01*
X019629Y006570D02*
X000298Y006570D01*
X000298Y006608D02*
X019629Y006608D01*
X019629Y006646D02*
X000298Y006646D01*
X000298Y006684D02*
X019629Y006684D01*
X019629Y006722D02*
X000298Y006722D01*
X000298Y006760D02*
X019629Y006760D01*
X019629Y006798D02*
X000298Y006798D01*
X000298Y006835D02*
X019629Y006835D01*
X019629Y006873D02*
X000298Y006873D01*
X000298Y006911D02*
X019629Y006911D01*
X019629Y006949D02*
X000298Y006949D01*
X000298Y006987D02*
X019629Y006987D01*
X019629Y007025D02*
X000298Y007025D01*
X000298Y007063D02*
X019629Y007063D01*
X019629Y007101D02*
X000298Y007101D01*
X000298Y007139D02*
X019629Y007139D01*
X019629Y007177D02*
X000298Y007177D01*
X000298Y007215D02*
X019629Y007215D01*
X019629Y007253D02*
X000298Y007253D01*
X000298Y007290D02*
X019629Y007290D01*
X019629Y007328D02*
X000298Y007328D01*
X000298Y007366D02*
X019629Y007366D01*
X019629Y007404D02*
X000298Y007404D01*
X000298Y007442D02*
X019629Y007442D01*
X019629Y007480D02*
X000298Y007480D01*
X000298Y007518D02*
X019629Y007518D01*
X019629Y007556D02*
X000298Y007556D01*
X000298Y007594D02*
X019629Y007594D01*
X019629Y007632D02*
X000298Y007632D01*
X000298Y007670D02*
X019629Y007670D01*
X019629Y007707D02*
X000298Y007707D01*
X000298Y007745D02*
X019629Y007745D01*
X019629Y007783D02*
X000298Y007783D01*
X000298Y007821D02*
X019629Y007821D01*
X019629Y007859D02*
X000298Y007859D01*
X000298Y007897D02*
X019629Y007897D01*
X019629Y007935D02*
X000298Y007935D01*
X000298Y007973D02*
X019629Y007973D01*
X019629Y008011D02*
X000298Y008011D01*
X000298Y008049D02*
X019629Y008049D01*
X019629Y008087D02*
X000298Y008087D01*
X000298Y008125D02*
X000901Y008125D01*
X000857Y008136D02*
X000949Y008112D01*
X001043Y008099D01*
X001676Y008099D01*
X001676Y008804D01*
X001715Y008804D01*
X001715Y008099D01*
X002348Y008099D01*
X002442Y008112D01*
X002534Y008136D01*
X002622Y008173D01*
X002704Y008220D01*
X002780Y008278D01*
X002847Y008345D01*
X002905Y008420D01*
X002952Y008503D01*
X002988Y008590D01*
X003013Y008682D01*
X003025Y008776D01*
X003025Y008804D01*
X001716Y008804D01*
X001716Y008844D01*
X003025Y008844D01*
X003025Y008871D01*
X003013Y008966D01*
X002988Y009057D01*
X002952Y009145D01*
X002905Y009227D01*
X002847Y009303D01*
X002780Y009370D01*
X002704Y009428D01*
X002622Y009475D01*
X002534Y009512D01*
X002442Y009536D01*
X002348Y009549D01*
X001715Y009549D01*
X001715Y008844D01*
X001676Y008844D01*
X001676Y009549D01*
X001043Y009549D01*
X000949Y009536D01*
X000857Y009512D01*
X000770Y009475D01*
X000687Y009428D01*
X000612Y009370D01*
X000545Y009303D01*
X000487Y009227D01*
X000439Y009145D01*
X000403Y009057D01*
X000378Y008966D01*
X000366Y008871D01*
X000366Y008844D01*
X001676Y008844D01*
X001676Y008804D01*
X000366Y008804D01*
X000366Y008776D01*
X000378Y008682D01*
X000403Y008590D01*
X000439Y008503D01*
X000487Y008420D01*
X000545Y008345D01*
X000612Y008278D01*
X000687Y008220D01*
X000770Y008173D01*
X000857Y008136D01*
X000794Y008162D02*
X000298Y008162D01*
X000298Y008200D02*
X000721Y008200D01*
X000664Y008238D02*
X000298Y008238D01*
X000298Y008276D02*
X000614Y008276D01*
X000576Y008314D02*
X000298Y008314D01*
X000298Y008352D02*
X000539Y008352D01*
X000510Y008390D02*
X000298Y008390D01*
X000298Y008428D02*
X000483Y008428D01*
X000461Y008466D02*
X000298Y008466D01*
X000298Y008504D02*
X000439Y008504D01*
X000423Y008542D02*
X000298Y008542D01*
X000298Y008579D02*
X000408Y008579D01*
X000396Y008617D02*
X000298Y008617D01*
X000298Y008655D02*
X000386Y008655D01*
X000377Y008693D02*
X000298Y008693D01*
X000298Y008731D02*
X000372Y008731D01*
X000367Y008769D02*
X000298Y008769D01*
X000298Y008807D02*
X001676Y008807D01*
X001676Y008845D02*
X001715Y008845D01*
X001715Y008883D02*
X001676Y008883D01*
X001676Y008921D02*
X001715Y008921D01*
X001715Y008959D02*
X001676Y008959D01*
X001676Y008997D02*
X001715Y008997D01*
X001715Y009034D02*
X001676Y009034D01*
X001676Y009072D02*
X001715Y009072D01*
X001715Y009110D02*
X001676Y009110D01*
X001676Y009148D02*
X001715Y009148D01*
X001715Y009186D02*
X001676Y009186D01*
X001676Y009224D02*
X001715Y009224D01*
X001715Y009262D02*
X001676Y009262D01*
X001676Y009300D02*
X001715Y009300D01*
X001715Y009338D02*
X001676Y009338D01*
X001676Y009376D02*
X001715Y009376D01*
X001715Y009414D02*
X001676Y009414D01*
X001676Y009451D02*
X001715Y009451D01*
X001715Y009489D02*
X001676Y009489D01*
X001676Y009527D02*
X001715Y009527D01*
X001716Y008807D02*
X019629Y008807D01*
X019629Y008845D02*
X003025Y008845D01*
X003024Y008883D02*
X019629Y008883D01*
X019629Y008921D02*
X003019Y008921D01*
X003014Y008959D02*
X019629Y008959D01*
X019629Y008997D02*
X003005Y008997D01*
X002995Y009034D02*
X019629Y009034D01*
X019629Y009072D02*
X002982Y009072D01*
X002966Y009110D02*
X019629Y009110D01*
X019629Y009148D02*
X002950Y009148D01*
X002928Y009186D02*
X019629Y009186D01*
X019629Y009224D02*
X002907Y009224D01*
X002878Y009262D02*
X019629Y009262D01*
X019629Y009300D02*
X002849Y009300D01*
X002812Y009338D02*
X019629Y009338D01*
X019629Y009376D02*
X002772Y009376D01*
X002723Y009414D02*
X019629Y009414D01*
X019629Y009451D02*
X002663Y009451D01*
X002588Y009489D02*
X019629Y009489D01*
X019629Y009527D02*
X002476Y009527D01*
X003024Y008769D02*
X019629Y008769D01*
X019629Y008731D02*
X003019Y008731D01*
X003014Y008693D02*
X019629Y008693D01*
X019629Y008655D02*
X003006Y008655D01*
X002996Y008617D02*
X019629Y008617D01*
X019629Y008579D02*
X002984Y008579D01*
X002968Y008542D02*
X019629Y008542D01*
X019629Y008504D02*
X002952Y008504D01*
X002931Y008466D02*
X019629Y008466D01*
X019629Y008428D02*
X002909Y008428D01*
X002881Y008390D02*
X019629Y008390D01*
X019629Y008352D02*
X002852Y008352D01*
X002816Y008314D02*
X019629Y008314D01*
X019629Y008276D02*
X002777Y008276D01*
X002728Y008238D02*
X019629Y008238D01*
X019629Y008200D02*
X002670Y008200D01*
X002597Y008162D02*
X019629Y008162D01*
X019629Y008125D02*
X002491Y008125D01*
X001715Y008125D02*
X001676Y008125D01*
X001676Y008162D02*
X001715Y008162D01*
X001715Y008200D02*
X001676Y008200D01*
X001676Y008238D02*
X001715Y008238D01*
X001715Y008276D02*
X001676Y008276D01*
X001676Y008314D02*
X001715Y008314D01*
X001715Y008352D02*
X001676Y008352D01*
X001676Y008390D02*
X001715Y008390D01*
X001715Y008428D02*
X001676Y008428D01*
X001676Y008466D02*
X001715Y008466D01*
X001715Y008504D02*
X001676Y008504D01*
X001676Y008542D02*
X001715Y008542D01*
X001715Y008579D02*
X001676Y008579D01*
X001676Y008617D02*
X001715Y008617D01*
X001715Y008655D02*
X001676Y008655D01*
X001676Y008693D02*
X001715Y008693D01*
X001715Y008731D02*
X001676Y008731D01*
X001676Y008769D02*
X001715Y008769D01*
X000916Y009527D02*
X000298Y009527D01*
X000298Y009489D02*
X000804Y009489D01*
X000728Y009451D02*
X000298Y009451D01*
X000298Y009414D02*
X000669Y009414D01*
X000619Y009376D02*
X000298Y009376D01*
X000298Y009338D02*
X000580Y009338D01*
X000543Y009300D02*
X000298Y009300D01*
X000298Y009262D02*
X000513Y009262D01*
X000485Y009224D02*
X000298Y009224D01*
X000298Y009186D02*
X000463Y009186D01*
X000441Y009148D02*
X000298Y009148D01*
X000298Y009110D02*
X000425Y009110D01*
X000409Y009072D02*
X000298Y009072D01*
X000298Y009034D02*
X000397Y009034D01*
X000387Y008997D02*
X000298Y008997D01*
X000298Y008959D02*
X000378Y008959D01*
X000373Y008921D02*
X000298Y008921D01*
X000298Y008883D02*
X000368Y008883D01*
X000366Y008845D02*
X000298Y008845D01*
X000298Y009565D02*
X019629Y009565D01*
X019629Y009603D02*
X000298Y009603D01*
X000298Y009641D02*
X019629Y009641D01*
X019629Y009679D02*
X000298Y009679D01*
X000298Y009717D02*
X019629Y009717D01*
X019629Y009755D02*
X000298Y009755D01*
X000298Y009793D02*
X019629Y009793D01*
X019629Y009831D02*
X000298Y009831D01*
X000298Y009869D02*
X019629Y009869D01*
X019629Y009906D02*
X000298Y009906D01*
X000298Y009944D02*
X019629Y009944D01*
X019629Y009982D02*
X000298Y009982D01*
X000298Y010020D02*
X019629Y010020D01*
X019629Y010058D02*
X000298Y010058D01*
X000298Y010096D02*
X019629Y010096D01*
X019629Y010134D02*
X000298Y010134D01*
X000298Y010172D02*
X019629Y010172D01*
X019629Y010210D02*
X016666Y010210D01*
X016610Y010187D02*
X016914Y010313D01*
X017147Y010545D01*
X017273Y010849D01*
X017273Y011178D01*
X017147Y011482D01*
X016914Y011715D01*
X016610Y011841D01*
X016281Y011841D01*
X015977Y011715D01*
X015744Y011482D01*
X015619Y011178D01*
X015619Y010849D01*
X015744Y010545D01*
X015977Y010313D01*
X016281Y010187D01*
X016610Y010187D01*
X016757Y010248D02*
X019629Y010248D01*
X019629Y010286D02*
X016849Y010286D01*
X016925Y010324D02*
X019629Y010324D01*
X019629Y010361D02*
X016963Y010361D01*
X017001Y010399D02*
X019629Y010399D01*
X019629Y010437D02*
X017039Y010437D01*
X017077Y010475D02*
X019629Y010475D01*
X019629Y010513D02*
X017115Y010513D01*
X017149Y010551D02*
X019629Y010551D01*
X019629Y010589D02*
X017165Y010589D01*
X017181Y010627D02*
X019629Y010627D01*
X019629Y010665D02*
X017196Y010665D01*
X017212Y010703D02*
X019629Y010703D01*
X019629Y010741D02*
X017228Y010741D01*
X017244Y010778D02*
X019629Y010778D01*
X019629Y010816D02*
X017259Y010816D01*
X017273Y010854D02*
X019629Y010854D01*
X019629Y010892D02*
X017273Y010892D01*
X017273Y010930D02*
X019629Y010930D01*
X019629Y010968D02*
X017273Y010968D01*
X017273Y011006D02*
X019629Y011006D01*
X019629Y011044D02*
X017273Y011044D01*
X017273Y011082D02*
X019629Y011082D01*
X019629Y011120D02*
X017273Y011120D01*
X017273Y011158D02*
X019629Y011158D01*
X019629Y011196D02*
X017266Y011196D01*
X017250Y011233D02*
X019629Y011233D01*
X019629Y011271D02*
X017234Y011271D01*
X017219Y011309D02*
X019629Y011309D01*
X019629Y011347D02*
X017203Y011347D01*
X017187Y011385D02*
X019629Y011385D01*
X019629Y011423D02*
X017172Y011423D01*
X017156Y011461D02*
X019629Y011461D01*
X019629Y011499D02*
X017131Y011499D01*
X017093Y011537D02*
X019629Y011537D01*
X019629Y011575D02*
X017055Y011575D01*
X017017Y011613D02*
X019629Y011613D01*
X019629Y011650D02*
X016979Y011650D01*
X016941Y011688D02*
X019629Y011688D01*
X019629Y011726D02*
X016887Y011726D01*
X016796Y011764D02*
X019629Y011764D01*
X019629Y011802D02*
X016704Y011802D01*
X016613Y011840D02*
X019629Y011840D01*
X019629Y011878D02*
X000298Y011878D01*
X000298Y011916D02*
X019629Y011916D01*
X019629Y011954D02*
X000298Y011954D01*
X000298Y011992D02*
X019629Y011992D01*
X019629Y012030D02*
X000298Y012030D01*
X000298Y012068D02*
X019629Y012068D01*
X019629Y012105D02*
X000298Y012105D01*
X000298Y012143D02*
X019629Y012143D01*
X019629Y012181D02*
X000298Y012181D01*
X000298Y012219D02*
X019629Y012219D01*
X019629Y012257D02*
X000298Y012257D01*
X000298Y012295D02*
X019629Y012295D01*
X019629Y012333D02*
X000298Y012333D01*
X000298Y012371D02*
X019629Y012371D01*
X019629Y012409D02*
X000298Y012409D01*
X000298Y012447D02*
X019629Y012447D01*
X019629Y012485D02*
X000298Y012485D01*
X000298Y012522D02*
X019629Y012522D01*
X019629Y012560D02*
X000298Y012560D01*
X000298Y012598D02*
X019629Y012598D01*
X019629Y012636D02*
X000298Y012636D01*
X000298Y012674D02*
X019629Y012674D01*
X019629Y012712D02*
X000298Y012712D01*
X000298Y012750D02*
X019629Y012750D01*
X019629Y012788D02*
X000298Y012788D01*
X000298Y012826D02*
X019629Y012826D01*
X019629Y012864D02*
X000298Y012864D01*
X000298Y012902D02*
X019629Y012902D01*
X019629Y012940D02*
X000298Y012940D01*
X000298Y012977D02*
X019629Y012977D01*
X019629Y013015D02*
X000298Y013015D01*
X000298Y013053D02*
X019629Y013053D01*
X019629Y013091D02*
X018263Y013091D01*
X018231Y013059D02*
X018487Y013315D01*
X018487Y013677D01*
X018231Y013933D01*
X017869Y013933D01*
X017613Y013677D01*
X017613Y013315D01*
X017869Y013059D01*
X018231Y013059D01*
X018301Y013129D02*
X019629Y013129D01*
X019629Y013167D02*
X018339Y013167D01*
X018377Y013205D02*
X019629Y013205D01*
X019629Y013243D02*
X018415Y013243D01*
X018453Y013281D02*
X019629Y013281D01*
X019629Y013319D02*
X018487Y013319D01*
X018487Y013357D02*
X019629Y013357D01*
X019629Y013394D02*
X018487Y013394D01*
X018487Y013432D02*
X019629Y013432D01*
X019629Y013470D02*
X018487Y013470D01*
X018487Y013508D02*
X019629Y013508D01*
X019629Y013546D02*
X018487Y013546D01*
X018487Y013584D02*
X019629Y013584D01*
X019629Y013622D02*
X018487Y013622D01*
X018487Y013660D02*
X019629Y013660D01*
X019629Y013698D02*
X018467Y013698D01*
X018429Y013736D02*
X019629Y013736D01*
X019629Y013774D02*
X018391Y013774D01*
X018353Y013812D02*
X019629Y013812D01*
X019629Y013849D02*
X018315Y013849D01*
X018277Y013887D02*
X019629Y013887D01*
X019629Y013925D02*
X018239Y013925D01*
X017861Y013925D02*
X016239Y013925D01*
X016231Y013933D02*
X016072Y013933D01*
X015560Y014446D01*
X015560Y014916D01*
X015686Y015041D01*
X015767Y015237D01*
X015767Y015448D01*
X015696Y015619D01*
X017185Y017108D01*
X017847Y017108D01*
X017853Y017102D01*
X018215Y017102D01*
X018471Y017358D01*
X018471Y017720D01*
X018215Y017976D01*
X017853Y017976D01*
X017635Y017758D01*
X016985Y017758D01*
X016866Y017708D01*
X016775Y017617D01*
X014963Y015805D01*
X014934Y015793D01*
X014785Y015644D01*
X014704Y015448D01*
X014704Y015237D01*
X014785Y015041D01*
X014910Y014916D01*
X014910Y014376D01*
X014910Y014246D01*
X014960Y014127D01*
X015613Y013474D01*
X015613Y013315D01*
X015869Y013059D01*
X016231Y013059D01*
X016487Y013315D01*
X016487Y013677D01*
X016231Y013933D01*
X016277Y013887D02*
X017823Y013887D01*
X017785Y013849D02*
X016315Y013849D01*
X016353Y013812D02*
X017747Y013812D01*
X017709Y013774D02*
X016391Y013774D01*
X016429Y013736D02*
X017671Y013736D01*
X017634Y013698D02*
X016467Y013698D01*
X016487Y013660D02*
X017613Y013660D01*
X017613Y013622D02*
X016487Y013622D01*
X016487Y013584D02*
X017613Y013584D01*
X017613Y013546D02*
X016487Y013546D01*
X016487Y013508D02*
X017613Y013508D01*
X017613Y013470D02*
X016487Y013470D01*
X016487Y013432D02*
X017613Y013432D01*
X017613Y013394D02*
X016487Y013394D01*
X016487Y013357D02*
X017613Y013357D01*
X017613Y013319D02*
X016487Y013319D01*
X016453Y013281D02*
X017647Y013281D01*
X017685Y013243D02*
X016415Y013243D01*
X016377Y013205D02*
X017723Y013205D01*
X017761Y013167D02*
X016339Y013167D01*
X016301Y013129D02*
X017799Y013129D01*
X017837Y013091D02*
X016263Y013091D01*
X015837Y013091D02*
X000298Y013091D01*
X000298Y013129D02*
X015799Y013129D01*
X015761Y013167D02*
X000298Y013167D01*
X000298Y013205D02*
X015723Y013205D01*
X015685Y013243D02*
X000298Y013243D01*
X000298Y013281D02*
X015647Y013281D01*
X015613Y013319D02*
X000298Y013319D01*
X000298Y013357D02*
X015613Y013357D01*
X015613Y013394D02*
X000298Y013394D01*
X000298Y013432D02*
X015613Y013432D01*
X015613Y013470D02*
X000298Y013470D01*
X000298Y013508D02*
X015579Y013508D01*
X015541Y013546D02*
X000298Y013546D01*
X000298Y013584D02*
X015503Y013584D01*
X015465Y013622D02*
X000298Y013622D01*
X000298Y013660D02*
X015427Y013660D01*
X015389Y013698D02*
X000298Y013698D01*
X000298Y013736D02*
X015351Y013736D01*
X015313Y013774D02*
X000298Y013774D01*
X000298Y013812D02*
X015275Y013812D01*
X015237Y013849D02*
X000298Y013849D01*
X000298Y013887D02*
X015199Y013887D01*
X015161Y013925D02*
X000298Y013925D01*
X000298Y013963D02*
X015124Y013963D01*
X015086Y014001D02*
X000298Y014001D01*
X000298Y014039D02*
X015048Y014039D01*
X015010Y014077D02*
X000298Y014077D01*
X000298Y014115D02*
X014972Y014115D01*
X014949Y014153D02*
X000298Y014153D01*
X000298Y014191D02*
X014933Y014191D01*
X014918Y014229D02*
X000298Y014229D01*
X000298Y014266D02*
X014910Y014266D01*
X014910Y014304D02*
X000298Y014304D01*
X000298Y014342D02*
X014910Y014342D01*
X014910Y014380D02*
X000298Y014380D01*
X000298Y014418D02*
X014910Y014418D01*
X014910Y014456D02*
X000298Y014456D01*
X000298Y014494D02*
X014910Y014494D01*
X014910Y014532D02*
X000298Y014532D01*
X000298Y014570D02*
X003310Y014570D01*
X003334Y014545D02*
X003994Y014545D01*
X004461Y015012D01*
X004461Y015673D01*
X003994Y016140D01*
X003334Y016140D01*
X002867Y015673D01*
X002867Y015012D01*
X003334Y014545D01*
X003272Y014608D02*
X000298Y014608D01*
X000298Y014646D02*
X003234Y014646D01*
X003196Y014684D02*
X000298Y014684D01*
X000298Y014721D02*
X003158Y014721D01*
X003120Y014759D02*
X000298Y014759D01*
X000298Y014797D02*
X003082Y014797D01*
X003044Y014835D02*
X000298Y014835D01*
X000298Y014873D02*
X003006Y014873D01*
X002968Y014911D02*
X000298Y014911D01*
X000298Y014949D02*
X002930Y014949D01*
X002893Y014987D02*
X000298Y014987D01*
X000298Y015025D02*
X002867Y015025D01*
X002867Y015063D02*
X000298Y015063D01*
X000298Y015101D02*
X002867Y015101D01*
X002867Y015139D02*
X000298Y015139D01*
X000298Y015176D02*
X002867Y015176D01*
X002867Y015214D02*
X000298Y015214D01*
X000298Y015252D02*
X002867Y015252D01*
X002867Y015290D02*
X000298Y015290D01*
X000298Y015328D02*
X002867Y015328D01*
X002867Y015366D02*
X000298Y015366D01*
X000298Y015404D02*
X002867Y015404D01*
X002867Y015442D02*
X000298Y015442D01*
X000298Y015480D02*
X002867Y015480D01*
X002867Y015518D02*
X000298Y015518D01*
X000298Y015556D02*
X002867Y015556D01*
X002867Y015593D02*
X000298Y015593D01*
X000298Y015631D02*
X002867Y015631D01*
X002867Y015669D02*
X000298Y015669D01*
X000298Y015707D02*
X002902Y015707D01*
X002940Y015745D02*
X000298Y015745D01*
X000298Y015783D02*
X002977Y015783D01*
X003015Y015821D02*
X000298Y015821D01*
X000298Y015859D02*
X003053Y015859D01*
X003091Y015897D02*
X000298Y015897D01*
X000298Y015935D02*
X003129Y015935D01*
X003167Y015973D02*
X000298Y015973D01*
X000298Y016011D02*
X003205Y016011D01*
X003243Y016048D02*
X000298Y016048D01*
X000298Y016086D02*
X003281Y016086D01*
X003319Y016124D02*
X000298Y016124D01*
X000298Y016162D02*
X011956Y016162D01*
X011994Y016124D02*
X004010Y016124D01*
X004048Y016086D02*
X012032Y016086D01*
X012070Y016048D02*
X004086Y016048D01*
X004124Y016011D02*
X012108Y016011D01*
X012146Y015973D02*
X004161Y015973D01*
X004199Y015935D02*
X012184Y015935D01*
X012221Y015897D02*
X004237Y015897D01*
X004275Y015859D02*
X008093Y015859D01*
X008129Y015874D02*
X007934Y015793D01*
X007785Y015644D01*
X007704Y015448D01*
X007704Y015237D01*
X007785Y015041D01*
X007934Y014892D01*
X008129Y014811D01*
X008341Y014811D01*
X008536Y014892D01*
X008686Y015041D01*
X008767Y015237D01*
X008767Y015448D01*
X008686Y015644D01*
X008536Y015793D01*
X008341Y015874D01*
X008129Y015874D01*
X008001Y015821D02*
X004313Y015821D01*
X004351Y015783D02*
X007924Y015783D01*
X007886Y015745D02*
X004389Y015745D01*
X004427Y015707D02*
X007848Y015707D01*
X007810Y015669D02*
X004461Y015669D01*
X004461Y015631D02*
X007779Y015631D01*
X007764Y015593D02*
X004461Y015593D01*
X004461Y015556D02*
X007748Y015556D01*
X007732Y015518D02*
X004461Y015518D01*
X004461Y015480D02*
X007717Y015480D01*
X007704Y015442D02*
X004461Y015442D01*
X004461Y015404D02*
X007704Y015404D01*
X007704Y015366D02*
X004461Y015366D01*
X004461Y015328D02*
X007704Y015328D01*
X007704Y015290D02*
X004461Y015290D01*
X004461Y015252D02*
X007704Y015252D01*
X007713Y015214D02*
X004461Y015214D01*
X004461Y015176D02*
X007729Y015176D01*
X007744Y015139D02*
X004461Y015139D01*
X004461Y015101D02*
X007760Y015101D01*
X007776Y015063D02*
X004461Y015063D01*
X004461Y015025D02*
X007801Y015025D01*
X007839Y014987D02*
X004436Y014987D01*
X004398Y014949D02*
X007877Y014949D01*
X007915Y014911D02*
X004360Y014911D01*
X004322Y014873D02*
X007979Y014873D01*
X008071Y014835D02*
X004284Y014835D01*
X004246Y014797D02*
X014910Y014797D01*
X014910Y014759D02*
X004208Y014759D01*
X004171Y014721D02*
X014910Y014721D01*
X014910Y014684D02*
X004133Y014684D01*
X004095Y014646D02*
X014910Y014646D01*
X014910Y014608D02*
X004057Y014608D01*
X004019Y014570D02*
X014910Y014570D01*
X014910Y014835D02*
X013399Y014835D01*
X013341Y014811D02*
X013536Y014892D01*
X013686Y015041D01*
X013767Y015237D01*
X013767Y015448D01*
X013686Y015644D01*
X013536Y015793D01*
X013341Y015874D01*
X013163Y015874D01*
X011919Y017118D01*
X011800Y017167D01*
X011670Y017167D01*
X010885Y017167D01*
X009435Y018618D01*
X009315Y018667D01*
X009186Y018667D01*
X008662Y018667D01*
X008536Y018793D01*
X008341Y018874D01*
X008129Y018874D01*
X007934Y018793D01*
X007808Y018667D01*
X004393Y018667D01*
X004340Y018794D01*
X004116Y019018D01*
X003823Y019140D01*
X003506Y019140D01*
X003213Y019018D01*
X002988Y018794D01*
X002867Y018501D01*
X002867Y018184D01*
X002988Y017891D01*
X003213Y017667D01*
X003506Y017545D01*
X003823Y017545D01*
X004116Y017667D01*
X004340Y017891D01*
X004393Y018018D01*
X007808Y018018D01*
X007934Y017892D01*
X008129Y017811D01*
X008341Y017811D01*
X008536Y017892D01*
X008662Y018018D01*
X009116Y018018D01*
X010476Y016659D01*
X010476Y016659D01*
X010567Y016567D01*
X010686Y016518D01*
X011601Y016518D01*
X012704Y015415D01*
X012704Y015237D01*
X012785Y015041D01*
X012934Y014892D01*
X013129Y014811D01*
X013341Y014811D01*
X013491Y014873D02*
X014910Y014873D01*
X014910Y014911D02*
X013555Y014911D01*
X013593Y014949D02*
X014877Y014949D01*
X014839Y014987D02*
X013631Y014987D01*
X013669Y015025D02*
X014801Y015025D01*
X014776Y015063D02*
X013694Y015063D01*
X013710Y015101D02*
X014760Y015101D01*
X014744Y015139D02*
X013726Y015139D01*
X013742Y015176D02*
X014729Y015176D01*
X014713Y015214D02*
X013757Y015214D01*
X013767Y015252D02*
X014704Y015252D01*
X014704Y015290D02*
X013767Y015290D01*
X013767Y015328D02*
X014704Y015328D01*
X014704Y015366D02*
X013767Y015366D01*
X013767Y015404D02*
X014704Y015404D01*
X014704Y015442D02*
X013767Y015442D01*
X013754Y015480D02*
X014717Y015480D01*
X014732Y015518D02*
X013738Y015518D01*
X013722Y015556D02*
X014748Y015556D01*
X014764Y015593D02*
X013706Y015593D01*
X013691Y015631D02*
X014779Y015631D01*
X014810Y015669D02*
X013660Y015669D01*
X013622Y015707D02*
X014848Y015707D01*
X014886Y015745D02*
X013584Y015745D01*
X013546Y015783D02*
X014924Y015783D01*
X014979Y015821D02*
X013469Y015821D01*
X013377Y015859D02*
X015017Y015859D01*
X015054Y015897D02*
X013140Y015897D01*
X013102Y015935D02*
X015092Y015935D01*
X015130Y015973D02*
X013064Y015973D01*
X013026Y016011D02*
X015168Y016011D01*
X015206Y016048D02*
X012989Y016048D01*
X012951Y016086D02*
X015244Y016086D01*
X015282Y016124D02*
X012913Y016124D01*
X012875Y016162D02*
X015320Y016162D01*
X015358Y016200D02*
X012837Y016200D01*
X012799Y016238D02*
X015396Y016238D01*
X015434Y016276D02*
X012761Y016276D01*
X012723Y016314D02*
X015472Y016314D01*
X015509Y016352D02*
X012685Y016352D01*
X012647Y016390D02*
X015547Y016390D01*
X015585Y016428D02*
X012609Y016428D01*
X012571Y016465D02*
X015623Y016465D01*
X015661Y016503D02*
X012534Y016503D01*
X012496Y016541D02*
X015699Y016541D01*
X015737Y016579D02*
X012458Y016579D01*
X012420Y016617D02*
X015775Y016617D01*
X015813Y016655D02*
X012382Y016655D01*
X012344Y016693D02*
X015851Y016693D01*
X015889Y016731D02*
X012306Y016731D01*
X012268Y016769D02*
X015926Y016769D01*
X015964Y016807D02*
X012230Y016807D01*
X012192Y016845D02*
X016002Y016845D01*
X016040Y016883D02*
X012154Y016883D01*
X012116Y016920D02*
X016078Y016920D01*
X016116Y016958D02*
X012079Y016958D01*
X012041Y016996D02*
X016154Y016996D01*
X016192Y017034D02*
X012003Y017034D01*
X011965Y017072D02*
X016230Y017072D01*
X016268Y017110D02*
X011927Y017110D01*
X011846Y017148D02*
X016306Y017148D01*
X016344Y017186D02*
X010867Y017186D01*
X010829Y017224D02*
X016381Y017224D01*
X016419Y017262D02*
X010791Y017262D01*
X010753Y017300D02*
X016457Y017300D01*
X016495Y017337D02*
X010715Y017337D01*
X010677Y017375D02*
X016533Y017375D01*
X016571Y017413D02*
X010639Y017413D01*
X010601Y017451D02*
X016609Y017451D01*
X016647Y017489D02*
X010564Y017489D01*
X010526Y017527D02*
X016685Y017527D01*
X016723Y017565D02*
X010488Y017565D01*
X010450Y017603D02*
X016761Y017603D01*
X016798Y017641D02*
X010412Y017641D01*
X010374Y017679D02*
X016836Y017679D01*
X016886Y017717D02*
X010336Y017717D01*
X010298Y017755D02*
X016977Y017755D01*
X017669Y017792D02*
X010260Y017792D01*
X010222Y017830D02*
X011083Y017830D01*
X011129Y017811D02*
X011341Y017811D01*
X011536Y017892D01*
X011686Y018041D01*
X011767Y018237D01*
X011767Y018448D01*
X011686Y018644D01*
X011536Y018793D01*
X011341Y018874D01*
X011129Y018874D01*
X010934Y018793D01*
X010785Y018644D01*
X010704Y018448D01*
X010704Y018237D01*
X010785Y018041D01*
X010934Y017892D01*
X011129Y017811D01*
X010991Y017868D02*
X010184Y017868D01*
X010146Y017906D02*
X010920Y017906D01*
X010882Y017944D02*
X010109Y017944D01*
X010071Y017982D02*
X010844Y017982D01*
X010806Y018020D02*
X010033Y018020D01*
X009995Y018058D02*
X010778Y018058D01*
X010762Y018096D02*
X009957Y018096D01*
X009919Y018134D02*
X010746Y018134D01*
X010731Y018172D02*
X009881Y018172D01*
X009843Y018209D02*
X010715Y018209D01*
X010704Y018247D02*
X009805Y018247D01*
X009767Y018285D02*
X010704Y018285D01*
X010704Y018323D02*
X009729Y018323D01*
X009692Y018361D02*
X010704Y018361D01*
X010704Y018399D02*
X009654Y018399D01*
X009616Y018437D02*
X010704Y018437D01*
X010715Y018475D02*
X009578Y018475D01*
X009540Y018513D02*
X010730Y018513D01*
X010746Y018551D02*
X009502Y018551D01*
X009464Y018589D02*
X010762Y018589D01*
X010777Y018627D02*
X009414Y018627D01*
X009322Y018664D02*
X010805Y018664D01*
X010843Y018702D02*
X008627Y018702D01*
X008589Y018740D02*
X010881Y018740D01*
X010919Y018778D02*
X008551Y018778D01*
X008481Y018816D02*
X010990Y018816D01*
X011081Y018854D02*
X008389Y018854D01*
X008081Y018854D02*
X004280Y018854D01*
X004242Y018892D02*
X019629Y018892D01*
X019629Y018930D02*
X004204Y018930D01*
X004166Y018968D02*
X019629Y018968D01*
X019629Y019006D02*
X004128Y019006D01*
X004055Y019044D02*
X019629Y019044D01*
X019629Y019081D02*
X003963Y019081D01*
X003872Y019119D02*
X019629Y019119D01*
X019629Y019157D02*
X000298Y019157D01*
X000298Y019119D02*
X003457Y019119D01*
X003365Y019081D02*
X000298Y019081D01*
X000298Y019044D02*
X003274Y019044D01*
X003200Y019006D02*
X000298Y019006D01*
X000298Y018968D02*
X003162Y018968D01*
X003124Y018930D02*
X000298Y018930D01*
X000298Y018892D02*
X003086Y018892D01*
X003048Y018854D02*
X000298Y018854D01*
X000298Y018816D02*
X003010Y018816D01*
X002982Y018778D02*
X000298Y018778D01*
X000298Y018740D02*
X002966Y018740D01*
X002950Y018702D02*
X000298Y018702D01*
X000298Y018664D02*
X002935Y018664D01*
X002919Y018627D02*
X000298Y018627D01*
X000298Y018589D02*
X002903Y018589D01*
X002888Y018551D02*
X000298Y018551D01*
X000298Y018513D02*
X002872Y018513D01*
X002867Y018475D02*
X000298Y018475D01*
X000298Y018437D02*
X002867Y018437D01*
X002867Y018399D02*
X000298Y018399D01*
X000298Y018361D02*
X002867Y018361D01*
X002867Y018323D02*
X000298Y018323D01*
X000298Y018285D02*
X002867Y018285D01*
X002867Y018247D02*
X000298Y018247D01*
X000298Y018209D02*
X002867Y018209D01*
X002872Y018172D02*
X000298Y018172D01*
X000298Y018134D02*
X002888Y018134D01*
X002904Y018096D02*
X000298Y018096D01*
X000298Y018058D02*
X002919Y018058D01*
X002935Y018020D02*
X000298Y018020D01*
X000298Y017982D02*
X002951Y017982D01*
X002966Y017944D02*
X000298Y017944D01*
X000298Y017906D02*
X002982Y017906D01*
X003011Y017868D02*
X000298Y017868D01*
X000298Y017830D02*
X003049Y017830D01*
X003087Y017792D02*
X000298Y017792D01*
X000298Y017755D02*
X003125Y017755D01*
X003163Y017717D02*
X000298Y017717D01*
X000298Y017679D02*
X003201Y017679D01*
X003275Y017641D02*
X000298Y017641D01*
X000298Y017603D02*
X003367Y017603D01*
X003458Y017565D02*
X000298Y017565D01*
X000298Y017527D02*
X009607Y017527D01*
X009645Y017489D02*
X000298Y017489D01*
X000298Y017451D02*
X009683Y017451D01*
X009721Y017413D02*
X000298Y017413D01*
X000298Y017375D02*
X009759Y017375D01*
X009797Y017337D02*
X000298Y017337D01*
X000298Y017300D02*
X009834Y017300D01*
X009872Y017262D02*
X000298Y017262D01*
X000298Y017224D02*
X009910Y017224D01*
X009948Y017186D02*
X000298Y017186D01*
X000298Y017148D02*
X009986Y017148D01*
X010024Y017110D02*
X000298Y017110D01*
X000298Y017072D02*
X010062Y017072D01*
X010100Y017034D02*
X000298Y017034D01*
X000298Y016996D02*
X010138Y016996D01*
X010176Y016958D02*
X000298Y016958D01*
X000298Y016920D02*
X010214Y016920D01*
X010251Y016883D02*
X000298Y016883D01*
X000298Y016845D02*
X010289Y016845D01*
X010327Y016807D02*
X000298Y016807D01*
X000298Y016769D02*
X010365Y016769D01*
X010403Y016731D02*
X000298Y016731D01*
X000298Y016693D02*
X010441Y016693D01*
X010479Y016655D02*
X000298Y016655D01*
X000298Y016617D02*
X010517Y016617D01*
X010555Y016579D02*
X000298Y016579D01*
X000298Y016541D02*
X010629Y016541D01*
X011053Y015782D02*
X010987Y015748D01*
X010926Y015704D01*
X010874Y015651D01*
X010830Y015591D01*
X010796Y015524D01*
X010773Y015454D01*
X010761Y015380D01*
X010761Y015362D01*
X011215Y015362D01*
X011215Y015323D01*
X010761Y015323D01*
X010761Y015305D01*
X010773Y015231D01*
X010796Y015161D01*
X010830Y015094D01*
X010874Y015034D01*
X010926Y014981D01*
X010987Y014937D01*
X011053Y014903D01*
X011124Y014880D01*
X011198Y014869D01*
X011215Y014869D01*
X011215Y015323D01*
X011255Y015323D01*
X011255Y015362D01*
X011709Y015362D01*
X011709Y015380D01*
X011697Y015454D01*
X011674Y015524D01*
X011641Y015591D01*
X011597Y015651D01*
X011544Y015704D01*
X011484Y015748D01*
X011417Y015782D01*
X011346Y015805D01*
X011272Y015816D01*
X011255Y015816D01*
X011255Y015362D01*
X011215Y015362D01*
X011215Y015816D01*
X011198Y015816D01*
X011124Y015805D01*
X011053Y015782D01*
X011057Y015783D02*
X008546Y015783D01*
X008584Y015745D02*
X010983Y015745D01*
X010931Y015707D02*
X008622Y015707D01*
X008660Y015669D02*
X010892Y015669D01*
X010859Y015631D02*
X008691Y015631D01*
X008706Y015593D02*
X010832Y015593D01*
X010812Y015556D02*
X008722Y015556D01*
X008738Y015518D02*
X010794Y015518D01*
X010781Y015480D02*
X008754Y015480D01*
X008767Y015442D02*
X010771Y015442D01*
X010765Y015404D02*
X008767Y015404D01*
X008767Y015366D02*
X010761Y015366D01*
X010763Y015290D02*
X008767Y015290D01*
X008767Y015252D02*
X010769Y015252D01*
X010778Y015214D02*
X008757Y015214D01*
X008742Y015176D02*
X010791Y015176D01*
X010807Y015139D02*
X008726Y015139D01*
X008710Y015101D02*
X010826Y015101D01*
X010852Y015063D02*
X008694Y015063D01*
X008669Y015025D02*
X010882Y015025D01*
X010920Y014987D02*
X008631Y014987D01*
X008593Y014949D02*
X010970Y014949D01*
X011038Y014911D02*
X008555Y014911D01*
X008491Y014873D02*
X011169Y014873D01*
X011215Y014873D02*
X011255Y014873D01*
X011255Y014869D02*
X011272Y014869D01*
X011346Y014880D01*
X011417Y014903D01*
X011484Y014937D01*
X011544Y014981D01*
X011597Y015034D01*
X011641Y015094D01*
X011674Y015161D01*
X011697Y015231D01*
X011709Y015305D01*
X011709Y015323D01*
X011255Y015323D01*
X011255Y014869D01*
X011255Y014911D02*
X011215Y014911D01*
X011215Y014949D02*
X011255Y014949D01*
X011255Y014987D02*
X011215Y014987D01*
X011215Y015025D02*
X011255Y015025D01*
X011255Y015063D02*
X011215Y015063D01*
X011215Y015101D02*
X011255Y015101D01*
X011255Y015139D02*
X011215Y015139D01*
X011215Y015176D02*
X011255Y015176D01*
X011255Y015214D02*
X011215Y015214D01*
X011215Y015252D02*
X011255Y015252D01*
X011255Y015290D02*
X011215Y015290D01*
X011215Y015328D02*
X008767Y015328D01*
X008469Y015821D02*
X012297Y015821D01*
X012259Y015859D02*
X008377Y015859D01*
X008399Y014835D02*
X013071Y014835D01*
X012979Y014873D02*
X011301Y014873D01*
X011432Y014911D02*
X012915Y014911D01*
X012877Y014949D02*
X011500Y014949D01*
X011550Y014987D02*
X012839Y014987D01*
X012801Y015025D02*
X011588Y015025D01*
X011618Y015063D02*
X012776Y015063D01*
X012760Y015101D02*
X011644Y015101D01*
X011663Y015139D02*
X012744Y015139D01*
X012729Y015176D02*
X011680Y015176D01*
X011692Y015214D02*
X012713Y015214D01*
X012704Y015252D02*
X011701Y015252D01*
X011707Y015290D02*
X012704Y015290D01*
X012704Y015328D02*
X011255Y015328D01*
X011255Y015366D02*
X011215Y015366D01*
X011215Y015404D02*
X011255Y015404D01*
X011255Y015442D02*
X011215Y015442D01*
X011215Y015480D02*
X011255Y015480D01*
X011255Y015518D02*
X011215Y015518D01*
X011215Y015556D02*
X011255Y015556D01*
X011255Y015593D02*
X011215Y015593D01*
X011215Y015631D02*
X011255Y015631D01*
X011255Y015669D02*
X011215Y015669D01*
X011215Y015707D02*
X011255Y015707D01*
X011255Y015745D02*
X011215Y015745D01*
X011215Y015783D02*
X011255Y015783D01*
X011413Y015783D02*
X012335Y015783D01*
X012373Y015745D02*
X011487Y015745D01*
X011540Y015707D02*
X012411Y015707D01*
X012449Y015669D02*
X011579Y015669D01*
X011611Y015631D02*
X012487Y015631D01*
X012525Y015593D02*
X011639Y015593D01*
X011659Y015556D02*
X012563Y015556D01*
X012601Y015518D02*
X011677Y015518D01*
X011689Y015480D02*
X012639Y015480D01*
X012676Y015442D02*
X011699Y015442D01*
X011705Y015404D02*
X012704Y015404D01*
X012704Y015366D02*
X011709Y015366D01*
X011918Y016200D02*
X000298Y016200D01*
X000298Y016238D02*
X011880Y016238D01*
X011842Y016276D02*
X000298Y016276D01*
X000298Y016314D02*
X011804Y016314D01*
X011767Y016352D02*
X000298Y016352D01*
X000298Y016390D02*
X011729Y016390D01*
X011691Y016428D02*
X000298Y016428D01*
X000298Y016465D02*
X011653Y016465D01*
X011615Y016503D02*
X000298Y016503D01*
X000298Y019195D02*
X019629Y019195D01*
X019629Y019233D02*
X000298Y019233D01*
X000298Y019271D02*
X019629Y019271D01*
X019629Y019309D02*
X000298Y019309D01*
X000298Y019347D02*
X019629Y019347D01*
X019629Y019385D02*
X000298Y019385D01*
X000298Y019423D02*
X019629Y019423D01*
X019629Y019461D02*
X000298Y019461D01*
X000298Y019499D02*
X019629Y019499D01*
X019629Y019536D02*
X000298Y019536D01*
X000298Y019574D02*
X019629Y019574D01*
X019629Y019612D02*
X000298Y019612D01*
X000298Y019650D02*
X019629Y019650D01*
X019629Y019688D02*
X000298Y019688D01*
X000298Y019726D02*
X019629Y019726D01*
X019629Y019764D02*
X000298Y019764D01*
X000298Y019802D02*
X019629Y019802D01*
X019629Y019840D02*
X000298Y019840D01*
X000298Y019878D02*
X019629Y019878D01*
X019629Y019916D02*
X000298Y019916D01*
X000298Y019954D02*
X019629Y019954D01*
X019629Y019991D02*
X000298Y019991D01*
X003870Y017565D02*
X009569Y017565D01*
X009531Y017603D02*
X003962Y017603D01*
X004053Y017641D02*
X009493Y017641D01*
X009455Y017679D02*
X004128Y017679D01*
X004166Y017717D02*
X009417Y017717D01*
X009379Y017755D02*
X004204Y017755D01*
X004242Y017792D02*
X009342Y017792D01*
X009304Y017830D02*
X008387Y017830D01*
X008479Y017868D02*
X009266Y017868D01*
X009228Y017906D02*
X008550Y017906D01*
X008588Y017944D02*
X009190Y017944D01*
X009152Y017982D02*
X008626Y017982D01*
X008083Y017830D02*
X004279Y017830D01*
X004317Y017868D02*
X007991Y017868D01*
X007920Y017906D02*
X004346Y017906D01*
X004362Y017944D02*
X007882Y017944D01*
X007844Y017982D02*
X004378Y017982D01*
X004378Y018702D02*
X007843Y018702D01*
X007881Y018740D02*
X004362Y018740D01*
X004347Y018778D02*
X007919Y018778D01*
X007990Y018816D02*
X004318Y018816D01*
X011389Y018854D02*
X013081Y018854D01*
X013129Y018874D02*
X012934Y018793D01*
X012785Y018644D01*
X012704Y018448D01*
X012704Y018237D01*
X012785Y018041D01*
X012934Y017892D01*
X013129Y017811D01*
X013341Y017811D01*
X013536Y017892D01*
X013686Y018041D01*
X013767Y018237D01*
X013767Y018448D01*
X013686Y018644D01*
X013536Y018793D01*
X013341Y018874D01*
X013129Y018874D01*
X012990Y018816D02*
X011481Y018816D01*
X011551Y018778D02*
X012919Y018778D01*
X012881Y018740D02*
X011589Y018740D01*
X011627Y018702D02*
X012843Y018702D01*
X012805Y018664D02*
X011665Y018664D01*
X011693Y018627D02*
X012777Y018627D01*
X012762Y018589D02*
X011708Y018589D01*
X011724Y018551D02*
X012746Y018551D01*
X012730Y018513D02*
X011740Y018513D01*
X011756Y018475D02*
X012715Y018475D01*
X012704Y018437D02*
X011767Y018437D01*
X011767Y018399D02*
X012704Y018399D01*
X012704Y018361D02*
X011767Y018361D01*
X011767Y018323D02*
X012704Y018323D01*
X012704Y018285D02*
X011767Y018285D01*
X011767Y018247D02*
X012704Y018247D01*
X012715Y018209D02*
X011755Y018209D01*
X011740Y018172D02*
X012731Y018172D01*
X012746Y018134D02*
X011724Y018134D01*
X011708Y018096D02*
X012762Y018096D01*
X012778Y018058D02*
X011692Y018058D01*
X011664Y018020D02*
X012806Y018020D01*
X012844Y017982D02*
X011626Y017982D01*
X011588Y017944D02*
X012882Y017944D01*
X012920Y017906D02*
X011550Y017906D01*
X011479Y017868D02*
X012991Y017868D01*
X013083Y017830D02*
X011387Y017830D01*
X013387Y017830D02*
X015083Y017830D01*
X015129Y017811D02*
X015341Y017811D01*
X015536Y017892D01*
X015686Y018041D01*
X015767Y018237D01*
X015767Y018448D01*
X015686Y018644D01*
X015536Y018793D01*
X015341Y018874D01*
X015129Y018874D01*
X014934Y018793D01*
X014785Y018644D01*
X014704Y018448D01*
X014704Y018237D01*
X014785Y018041D01*
X014934Y017892D01*
X015129Y017811D01*
X014991Y017868D02*
X013479Y017868D01*
X013550Y017906D02*
X014920Y017906D01*
X014882Y017944D02*
X013588Y017944D01*
X013626Y017982D02*
X014844Y017982D01*
X014806Y018020D02*
X013664Y018020D01*
X013692Y018058D02*
X014778Y018058D01*
X014762Y018096D02*
X013708Y018096D01*
X013724Y018134D02*
X014746Y018134D01*
X014731Y018172D02*
X013740Y018172D01*
X013755Y018209D02*
X014715Y018209D01*
X014704Y018247D02*
X013767Y018247D01*
X013767Y018285D02*
X014704Y018285D01*
X014704Y018323D02*
X013767Y018323D01*
X013767Y018361D02*
X014704Y018361D01*
X014704Y018399D02*
X013767Y018399D01*
X013767Y018437D02*
X014704Y018437D01*
X014715Y018475D02*
X013756Y018475D01*
X013740Y018513D02*
X014730Y018513D01*
X014746Y018551D02*
X013724Y018551D01*
X013708Y018589D02*
X014762Y018589D01*
X014777Y018627D02*
X013693Y018627D01*
X013665Y018664D02*
X014805Y018664D01*
X014843Y018702D02*
X013627Y018702D01*
X013589Y018740D02*
X014881Y018740D01*
X014919Y018778D02*
X013551Y018778D01*
X013481Y018816D02*
X014990Y018816D01*
X015081Y018854D02*
X013389Y018854D01*
X015389Y018854D02*
X019629Y018854D01*
X019629Y018816D02*
X015481Y018816D01*
X015551Y018778D02*
X019629Y018778D01*
X019629Y018740D02*
X015589Y018740D01*
X015627Y018702D02*
X019629Y018702D01*
X019629Y018664D02*
X015665Y018664D01*
X015693Y018627D02*
X019629Y018627D01*
X019629Y018589D02*
X015708Y018589D01*
X015724Y018551D02*
X019629Y018551D01*
X019629Y018513D02*
X015740Y018513D01*
X015756Y018475D02*
X019629Y018475D01*
X019629Y018437D02*
X015767Y018437D01*
X015767Y018399D02*
X019629Y018399D01*
X019629Y018361D02*
X015767Y018361D01*
X015767Y018323D02*
X019629Y018323D01*
X019629Y018285D02*
X015767Y018285D01*
X015767Y018247D02*
X019629Y018247D01*
X019629Y018209D02*
X015755Y018209D01*
X015740Y018172D02*
X019629Y018172D01*
X019629Y018134D02*
X015724Y018134D01*
X015708Y018096D02*
X019629Y018096D01*
X019629Y018058D02*
X015692Y018058D01*
X015664Y018020D02*
X019629Y018020D01*
X019629Y017982D02*
X015626Y017982D01*
X015588Y017944D02*
X017821Y017944D01*
X017783Y017906D02*
X015550Y017906D01*
X015479Y017868D02*
X017745Y017868D01*
X017707Y017830D02*
X015387Y017830D01*
X016656Y016579D02*
X017655Y016579D01*
X017655Y016559D02*
X018014Y016559D01*
X018014Y016520D01*
X017655Y016520D01*
X017655Y016382D01*
X017877Y016160D01*
X018015Y016160D01*
X018015Y016519D01*
X018054Y016519D01*
X018054Y016160D01*
X018192Y016160D01*
X018414Y016382D01*
X018414Y016520D01*
X018054Y016520D01*
X018054Y016559D01*
X018414Y016559D01*
X018414Y016697D01*
X018192Y016919D01*
X018054Y016919D01*
X018054Y016559D01*
X018015Y016559D01*
X018015Y016919D01*
X017877Y016919D01*
X017655Y016697D01*
X017655Y016559D01*
X017655Y016503D02*
X016580Y016503D01*
X016542Y016465D02*
X017655Y016465D01*
X017655Y016428D02*
X016504Y016428D01*
X016466Y016390D02*
X017655Y016390D01*
X017685Y016352D02*
X016428Y016352D01*
X016390Y016314D02*
X017723Y016314D01*
X017761Y016276D02*
X016352Y016276D01*
X016314Y016238D02*
X017799Y016238D01*
X017837Y016200D02*
X016276Y016200D01*
X016238Y016162D02*
X017875Y016162D01*
X018015Y016162D02*
X018054Y016162D01*
X018054Y016200D02*
X018015Y016200D01*
X018015Y016238D02*
X018054Y016238D01*
X018054Y016276D02*
X018015Y016276D01*
X018015Y016314D02*
X018054Y016314D01*
X018054Y016352D02*
X018015Y016352D01*
X018015Y016390D02*
X018054Y016390D01*
X018054Y016428D02*
X018015Y016428D01*
X018015Y016465D02*
X018054Y016465D01*
X018054Y016503D02*
X018015Y016503D01*
X018014Y016541D02*
X016618Y016541D01*
X016693Y016617D02*
X017655Y016617D01*
X017655Y016655D02*
X016731Y016655D01*
X016769Y016693D02*
X017655Y016693D01*
X017689Y016731D02*
X016807Y016731D01*
X016845Y016769D02*
X017727Y016769D01*
X017765Y016807D02*
X016883Y016807D01*
X016921Y016845D02*
X017803Y016845D01*
X017841Y016883D02*
X016959Y016883D01*
X016997Y016920D02*
X019629Y016920D01*
X019629Y016883D02*
X018228Y016883D01*
X018266Y016845D02*
X019629Y016845D01*
X019629Y016807D02*
X018304Y016807D01*
X018342Y016769D02*
X019629Y016769D01*
X019629Y016731D02*
X018380Y016731D01*
X018414Y016693D02*
X019629Y016693D01*
X019629Y016655D02*
X018414Y016655D01*
X018414Y016617D02*
X019629Y016617D01*
X019629Y016579D02*
X018414Y016579D01*
X018414Y016503D02*
X019629Y016503D01*
X019629Y016465D02*
X018414Y016465D01*
X018414Y016428D02*
X019629Y016428D01*
X019629Y016390D02*
X018414Y016390D01*
X018384Y016352D02*
X019629Y016352D01*
X019629Y016314D02*
X018346Y016314D01*
X018308Y016276D02*
X019629Y016276D01*
X019629Y016238D02*
X018270Y016238D01*
X018232Y016200D02*
X019629Y016200D01*
X019629Y016162D02*
X018194Y016162D01*
X018054Y016541D02*
X019629Y016541D01*
X019629Y016124D02*
X016201Y016124D01*
X016163Y016086D02*
X019629Y016086D01*
X019629Y016048D02*
X016125Y016048D01*
X016087Y016011D02*
X019629Y016011D01*
X019629Y015973D02*
X016049Y015973D01*
X016011Y015935D02*
X019629Y015935D01*
X019629Y015897D02*
X015973Y015897D01*
X015935Y015859D02*
X019629Y015859D01*
X019629Y015821D02*
X015897Y015821D01*
X015859Y015783D02*
X019629Y015783D01*
X019629Y015745D02*
X015821Y015745D01*
X015784Y015707D02*
X019629Y015707D01*
X019629Y015669D02*
X015746Y015669D01*
X015708Y015631D02*
X019629Y015631D01*
X019629Y015593D02*
X015706Y015593D01*
X015722Y015556D02*
X019629Y015556D01*
X019629Y015518D02*
X015738Y015518D01*
X015754Y015480D02*
X019629Y015480D01*
X019629Y015442D02*
X015767Y015442D01*
X015767Y015404D02*
X019629Y015404D01*
X019629Y015366D02*
X015767Y015366D01*
X015767Y015328D02*
X019629Y015328D01*
X019629Y015290D02*
X015767Y015290D01*
X015767Y015252D02*
X019629Y015252D01*
X019629Y015214D02*
X015757Y015214D01*
X015742Y015176D02*
X019629Y015176D01*
X019629Y015139D02*
X015726Y015139D01*
X015710Y015101D02*
X019629Y015101D01*
X019629Y015063D02*
X015694Y015063D01*
X015669Y015025D02*
X019629Y015025D01*
X019629Y014987D02*
X015631Y014987D01*
X015593Y014949D02*
X019629Y014949D01*
X019629Y014911D02*
X015560Y014911D01*
X015560Y014873D02*
X019629Y014873D01*
X019629Y014835D02*
X015560Y014835D01*
X015560Y014797D02*
X019629Y014797D01*
X019629Y014759D02*
X015560Y014759D01*
X015560Y014721D02*
X019629Y014721D01*
X019629Y014684D02*
X015560Y014684D01*
X015560Y014646D02*
X019629Y014646D01*
X019629Y014608D02*
X015560Y014608D01*
X015560Y014570D02*
X019629Y014570D01*
X019629Y014532D02*
X015560Y014532D01*
X015560Y014494D02*
X019629Y014494D01*
X019629Y014456D02*
X015560Y014456D01*
X015587Y014418D02*
X019629Y014418D01*
X019629Y014380D02*
X015625Y014380D01*
X015663Y014342D02*
X019629Y014342D01*
X019629Y014304D02*
X015701Y014304D01*
X015739Y014266D02*
X019629Y014266D01*
X019629Y014229D02*
X015777Y014229D01*
X015815Y014191D02*
X019629Y014191D01*
X019629Y014153D02*
X015853Y014153D01*
X015891Y014115D02*
X019629Y014115D01*
X019629Y014077D02*
X015929Y014077D01*
X015966Y014039D02*
X019629Y014039D01*
X019629Y014001D02*
X016004Y014001D01*
X016042Y013963D02*
X019629Y013963D01*
X018054Y016579D02*
X018015Y016579D01*
X018015Y016617D02*
X018054Y016617D01*
X018054Y016655D02*
X018015Y016655D01*
X018015Y016693D02*
X018054Y016693D01*
X018054Y016731D02*
X018015Y016731D01*
X018015Y016769D02*
X018054Y016769D01*
X018054Y016807D02*
X018015Y016807D01*
X018015Y016845D02*
X018054Y016845D01*
X018054Y016883D02*
X018015Y016883D01*
X018223Y017110D02*
X019629Y017110D01*
X019629Y017148D02*
X018261Y017148D01*
X018299Y017186D02*
X019629Y017186D01*
X019629Y017224D02*
X018337Y017224D01*
X018375Y017262D02*
X019629Y017262D01*
X019629Y017300D02*
X018413Y017300D01*
X018451Y017337D02*
X019629Y017337D01*
X019629Y017375D02*
X018471Y017375D01*
X018471Y017413D02*
X019629Y017413D01*
X019629Y017451D02*
X018471Y017451D01*
X018471Y017489D02*
X019629Y017489D01*
X019629Y017527D02*
X018471Y017527D01*
X018471Y017565D02*
X019629Y017565D01*
X019629Y017603D02*
X018471Y017603D01*
X018471Y017641D02*
X019629Y017641D01*
X019629Y017679D02*
X018471Y017679D01*
X018471Y017717D02*
X019629Y017717D01*
X019629Y017755D02*
X018437Y017755D01*
X018399Y017792D02*
X019629Y017792D01*
X019629Y017830D02*
X018362Y017830D01*
X018324Y017868D02*
X019629Y017868D01*
X019629Y017906D02*
X018286Y017906D01*
X018248Y017944D02*
X019629Y017944D01*
X019629Y017072D02*
X017148Y017072D01*
X017110Y017034D02*
X019629Y017034D01*
X019629Y016996D02*
X017073Y016996D01*
X017035Y016958D02*
X019629Y016958D01*
X016279Y011840D02*
X007863Y011840D01*
X007860Y011841D02*
X007531Y011841D01*
X007227Y011715D01*
X006994Y011482D01*
X006869Y011178D01*
X006869Y010849D01*
X006994Y010545D01*
X007227Y010313D01*
X007531Y010187D01*
X007860Y010187D01*
X008164Y010313D01*
X008397Y010545D01*
X008523Y010849D01*
X008523Y011178D01*
X008397Y011482D01*
X008164Y011715D01*
X007860Y011841D01*
X007954Y011802D02*
X016187Y011802D01*
X016096Y011764D02*
X008046Y011764D01*
X008137Y011726D02*
X016004Y011726D01*
X015950Y011688D02*
X008191Y011688D01*
X008229Y011650D02*
X015912Y011650D01*
X015875Y011613D02*
X008267Y011613D01*
X008305Y011575D02*
X015837Y011575D01*
X015799Y011537D02*
X008343Y011537D01*
X008381Y011499D02*
X015761Y011499D01*
X015736Y011461D02*
X008406Y011461D01*
X008422Y011423D02*
X015720Y011423D01*
X015704Y011385D02*
X008437Y011385D01*
X008453Y011347D02*
X015688Y011347D01*
X015673Y011309D02*
X008469Y011309D01*
X008484Y011271D02*
X015657Y011271D01*
X015641Y011233D02*
X008500Y011233D01*
X008516Y011196D02*
X015626Y011196D01*
X015619Y011158D02*
X008523Y011158D01*
X008523Y011120D02*
X015619Y011120D01*
X015619Y011082D02*
X008523Y011082D01*
X008523Y011044D02*
X015619Y011044D01*
X015619Y011006D02*
X008523Y011006D01*
X008523Y010968D02*
X015619Y010968D01*
X015619Y010930D02*
X008523Y010930D01*
X008523Y010892D02*
X015619Y010892D01*
X015619Y010854D02*
X008523Y010854D01*
X008509Y010816D02*
X015632Y010816D01*
X015648Y010778D02*
X008494Y010778D01*
X008478Y010741D02*
X015664Y010741D01*
X015679Y010703D02*
X008462Y010703D01*
X008446Y010665D02*
X015695Y010665D01*
X015711Y010627D02*
X008431Y010627D01*
X008415Y010589D02*
X015726Y010589D01*
X015742Y010551D02*
X008399Y010551D01*
X008365Y010513D02*
X015777Y010513D01*
X015815Y010475D02*
X008327Y010475D01*
X008289Y010437D02*
X015853Y010437D01*
X015891Y010399D02*
X008251Y010399D01*
X008213Y010361D02*
X015928Y010361D01*
X015966Y010324D02*
X008175Y010324D01*
X008099Y010286D02*
X016043Y010286D01*
X016134Y010248D02*
X008007Y010248D01*
X007916Y010210D02*
X016226Y010210D01*
X016224Y002438D02*
X007917Y002438D01*
X008009Y002400D02*
X016133Y002400D01*
X016041Y002362D02*
X008100Y002362D01*
X008176Y002324D02*
X015966Y002324D01*
X015928Y002286D02*
X008214Y002286D01*
X008251Y002248D02*
X015890Y002248D01*
X015852Y002210D02*
X008289Y002210D01*
X008327Y002172D02*
X015814Y002172D01*
X015776Y002134D02*
X008365Y002134D01*
X008400Y002096D02*
X015742Y002096D01*
X015726Y002058D02*
X008415Y002058D01*
X008431Y002020D02*
X015711Y002020D01*
X015695Y001983D02*
X008447Y001983D01*
X008462Y001945D02*
X015679Y001945D01*
X015663Y001907D02*
X008478Y001907D01*
X008494Y001869D02*
X015648Y001869D01*
X015632Y001831D02*
X008509Y001831D01*
X008523Y001793D02*
X015619Y001793D01*
X015619Y001755D02*
X008523Y001755D01*
X008523Y001717D02*
X015619Y001717D01*
X015619Y001679D02*
X008523Y001679D01*
X008523Y001641D02*
X015619Y001641D01*
X015619Y001603D02*
X008523Y001603D01*
X008523Y001566D02*
X015619Y001566D01*
X015619Y001528D02*
X008523Y001528D01*
X008523Y001490D02*
X015619Y001490D01*
X015626Y001452D02*
X008516Y001452D01*
X008500Y001414D02*
X015642Y001414D01*
X015657Y001376D02*
X008484Y001376D01*
X008468Y001338D02*
X015673Y001338D01*
X015689Y001300D02*
X008453Y001300D01*
X008437Y001262D02*
X015704Y001262D01*
X015720Y001224D02*
X008421Y001224D01*
X008406Y001186D02*
X015736Y001186D01*
X015761Y001148D02*
X008380Y001148D01*
X008342Y001111D02*
X015799Y001111D01*
X015837Y001073D02*
X008304Y001073D01*
X008266Y001035D02*
X015875Y001035D01*
X015913Y000997D02*
X008228Y000997D01*
X008191Y000959D02*
X015951Y000959D01*
X016005Y000921D02*
X008136Y000921D01*
X008044Y000883D02*
X016097Y000883D01*
X016188Y000845D02*
X007953Y000845D01*
X007861Y000807D02*
X016280Y000807D01*
X007476Y010210D02*
X000298Y010210D01*
X000298Y010248D02*
X007384Y010248D01*
X007293Y010286D02*
X000298Y010286D01*
X000298Y010324D02*
X007216Y010324D01*
X007178Y010361D02*
X000298Y010361D01*
X000298Y010399D02*
X007141Y010399D01*
X007103Y010437D02*
X000298Y010437D01*
X000298Y010475D02*
X007065Y010475D01*
X007027Y010513D02*
X000298Y010513D01*
X000298Y010551D02*
X006992Y010551D01*
X006976Y010589D02*
X000298Y010589D01*
X000298Y010627D02*
X006961Y010627D01*
X006945Y010665D02*
X000298Y010665D01*
X000298Y010703D02*
X006929Y010703D01*
X006914Y010741D02*
X000298Y010741D01*
X000298Y010778D02*
X006898Y010778D01*
X006882Y010816D02*
X000298Y010816D01*
X000298Y010854D02*
X006869Y010854D01*
X006869Y010892D02*
X000298Y010892D01*
X000298Y010930D02*
X006869Y010930D01*
X006869Y010968D02*
X000298Y010968D01*
X000298Y011006D02*
X006869Y011006D01*
X006869Y011044D02*
X000298Y011044D01*
X000298Y011082D02*
X006869Y011082D01*
X006869Y011120D02*
X000298Y011120D01*
X000298Y011158D02*
X006869Y011158D01*
X006876Y011196D02*
X000298Y011196D01*
X000298Y011233D02*
X006891Y011233D01*
X006907Y011271D02*
X000298Y011271D01*
X000298Y011309D02*
X006923Y011309D01*
X006938Y011347D02*
X000298Y011347D01*
X000298Y011385D02*
X006954Y011385D01*
X006970Y011423D02*
X000298Y011423D01*
X000298Y011461D02*
X006986Y011461D01*
X007011Y011499D02*
X000298Y011499D01*
X000298Y011537D02*
X007049Y011537D01*
X007087Y011575D02*
X000298Y011575D01*
X000298Y011613D02*
X007125Y011613D01*
X007162Y011650D02*
X000298Y011650D01*
X000298Y011688D02*
X007200Y011688D01*
X007254Y011726D02*
X000298Y011726D01*
X000298Y011764D02*
X007346Y011764D01*
X007437Y011802D02*
X000298Y011802D01*
X000298Y011840D02*
X007529Y011840D01*
D17*
X010751Y016843D02*
X011735Y016843D01*
X013235Y015343D01*
X015235Y015343D02*
X015235Y014311D01*
X016050Y013496D01*
X015235Y015343D02*
X015235Y015618D01*
X017050Y017433D01*
X017928Y017433D01*
X018034Y017539D01*
X010751Y016843D02*
X009251Y018343D01*
X008235Y018343D01*
X003664Y018343D01*
M02*
